<svg width="3810" height="170" viewBox="0 0 3810 170" fill="none" xmlns="http://www.w3.org/2000/svg">
<path fill-rule="evenodd" clip-rule="evenodd" d="M0 0H10V10H0V0ZM10 40H0V50H10V40ZM0 80H10V90H0V80ZM10 120H0V130H10V120ZM10 160H0V170H10V160ZM50 160H40V170H50V160ZM40 120H50V130H40V120ZM50 80H40V90H50V80ZM40 40H50V50H40V40ZM90 160H80V170H90V160ZM80 120H90V130H80V120ZM90 80H80V90H90V80ZM120 160H130V170H120V160ZM130 120H120V130H130V120ZM160 160H170V170H160V160ZM170 120H160V130H170V120ZM160 80H170V90H160V80ZM170 40H160V50H170V40ZM200 160H210V170H200V160ZM210 120H200V130H210V120ZM200 80H210V90H200V80ZM250 160H240V170H250V160ZM240 120H250V130H240V120ZM250 80H240V90H250V80ZM240 40H250V50H240V40ZM250 0H240V10H250V0ZM280 160H290V170H280V160ZM290 120H280V130H290V120ZM280 80H290V90H280V80ZM290 40H280V50H290V40ZM320 160H330V170H320V160ZM330 120H320V130H330V120ZM320 80H330V90H320V80ZM370 160H360V170H370V160ZM360 120H370V130H360V120ZM410 160H400V170H410V160ZM440 160H450V170H440V160ZM410 120H400V130H410V120ZM440 120H450V130H440V120ZM410 80H400V90H410V80ZM400 40H410V50H400V40ZM480 0H490V10H480V0ZM490 40H480V50H490V40ZM480 80H490V90H480V80ZM490 120H480V130H490V120ZM490 160H480V170H490V160ZM530 160H520V170H530V160ZM520 120H530V130H520V120ZM530 80H520V90H530V80ZM520 40H530V50H520V40ZM570 160H560V170H570V160ZM560 120H570V130H560V120ZM570 80H560V90H570V80ZM600 160H610V170H600V160ZM610 120H600V130H610V120ZM640 160H650V170H640V160ZM650 120H640V130H650V120ZM640 80H650V90H640V80ZM650 40H640V50H650V40ZM680 160H690V170H680V160ZM690 120H680V130H690V120ZM680 80H690V90H680V80ZM730 160H720V170H730V160ZM720 120H730V130H720V120ZM730 80H720V90H730V80ZM720 40H730V50H720V40ZM730 0H720V10H730V0ZM760 160H770V170H760V160ZM770 120H760V130H770V120ZM760 80H770V90H760V80ZM770 40H760V50H770V40ZM800 160H810V170H800V160ZM810 120H800V130H810V120ZM800 80H810V90H800V80ZM850 160H840V170H850V160ZM840 120H850V130H840V120ZM890 160H880V170H890V160ZM920 160H930V170H920V160ZM890 120H880V130H890V120ZM920 120H930V130H920V120ZM890 80H880V90H890V80ZM880 40H890V50H880V40ZM970 0H960V10H970V0ZM960 40H970V50H960V40ZM970 80H960V90H970V80ZM960 120H970V130H960V120ZM960 160H970V170H960V160ZM1000 160H1010V170H1000V160ZM1010 120H1000V130H1010V120ZM1000 80H1010V90H1000V80ZM1010 40H1000V50H1010V40ZM1040 160H1050V170H1040V160ZM1050 120H1040V130H1050V120ZM1040 80H1050V90H1040V80ZM1090 160H1080V170H1090V160ZM1080 120H1090V130H1080V120ZM1130 160H1120V170H1130V160ZM1120 120H1130V130H1120V120ZM1130 80H1120V90H1130V80ZM1120 40H1130V50H1120V40ZM1170 160H1160V170H1170V160ZM1160 120H1170V130H1160V120ZM1170 80H1160V90H1170V80ZM1200 160H1210V170H1200V160ZM1210 120H1200V130H1210V120ZM1200 80H1210V90H1200V80ZM1210 40H1200V50H1210V40ZM1200 0H1210V10H1200V0ZM1250 160H1240V170H1250V160ZM1240 120H1250V130H1240V120ZM1250 80H1240V90H1250V80ZM1240 40H1250V50H1240V40ZM1290 160H1280V170H1290V160ZM1280 120H1290V130H1280V120ZM1290 80H1280V90H1290V80ZM1320 160H1330V170H1320V160ZM1330 120H1320V130H1330V120ZM1360 160H1370V170H1360V160ZM1410 160H1400V170H1410V160ZM1360 120H1370V130H1360V120ZM1410 120H1400V130H1410V120ZM1360 80H1370V90H1360V80ZM1370 40H1360V50H1370V40ZM1440 0H1450V10H1440V0ZM1450 40H1440V50H1450V40ZM1440 80H1450V90H1440V80ZM1450 120H1440V130H1450V120ZM1450 160H1440V170H1450V160ZM1490 160H1480V170H1490V160ZM1480 120H1490V130H1480V120ZM1490 80H1480V90H1490V80ZM1480 40H1490V50H1480V40ZM1530 160H1520V170H1530V160ZM1520 120H1530V130H1520V120ZM1530 80H1520V90H1530V80ZM1560 160H1570V170H1560V160ZM1570 120H1560V130H1570V120ZM1600 160H1610V170H1600V160ZM1610 120H1600V130H1610V120ZM1600 80H1610V90H1600V80ZM1610 40H1600V50H1610V40ZM1640 160H1650V170H1640V160ZM1650 120H1640V130H1650V120ZM1640 80H1650V90H1640V80ZM1690 160H1680V170H1690V160ZM1680 120H1690V130H1680V120ZM1690 80H1680V90H1690V80ZM1680 40H1690V50H1680V40ZM1690 0H1680V10H1690V0ZM1720 160H1730V170H1720V160ZM1730 120H1720V130H1730V120ZM1720 80H1730V90H1720V80ZM1730 40H1720V50H1730V40ZM1760 160H1770V170H1760V160ZM1770 120H1760V130H1770V120ZM1760 80H1770V90H1760V80ZM1810 160H1800V170H1810V160ZM1800 120H1810V130H1800V120ZM1850 160H1840V170H1850V160ZM1880 160H1890V170H1880V160ZM1850 120H1840V130H1850V120ZM1880 120H1890V130H1880V120ZM1850 80H1840V90H1850V80ZM1840 40H1850V50H1840V40ZM1930 0H1920V10H1930V0ZM1920 40H1930V50H1920V40ZM1930 80H1920V90H1930V80ZM1920 120H1930V130H1920V120ZM1920 160H1930V170H1920V160ZM1960 160H1970V170H1960V160ZM1970 120H1960V130H1970V120ZM1960 80H1970V90H1960V80ZM1970 40H1960V50H1970V40ZM2000 160H2010V170H2000V160ZM2010 120H2000V130H2010V120ZM2000 80H2010V90H2000V80ZM2050 160H2040V170H2050V160ZM2040 120H2050V130H2040V120ZM2090 160H2080V170H2090V160ZM2080 120H2090V130H2080V120ZM2090 80H2080V90H2090V80ZM2080 40H2090V50H2080V40ZM2130 160H2120V170H2130V160ZM2120 120H2130V130H2120V120ZM2130 80H2120V90H2130V80ZM2160 160H2170V170H2160V160ZM2170 120H2160V130H2170V120ZM2160 80H2170V90H2160V80ZM2170 40H2160V50H2170V40ZM2160 0H2170V10H2160V0ZM2210 160H2200V170H2210V160ZM2200 120H2210V130H2200V120ZM2210 80H2200V90H2210V80ZM2200 40H2210V50H2200V40ZM2250 160H2240V170H2250V160ZM2240 120H2250V130H2240V120ZM2250 80H2240V90H2250V80ZM2280 160H2290V170H2280V160ZM2290 120H2280V130H2290V120ZM2320 160H2330V170H2320V160ZM2370 160H2360V170H2370V160ZM2320 120H2330V130H2320V120ZM2370 120H2360V130H2370V120ZM2320 80H2330V90H2320V80ZM2330 40H2320V50H2330V40ZM2400 0H2410V10H2400V0ZM2410 40H2400V50H2410V40ZM2400 80H2410V90H2400V80ZM2410 120H2400V130H2410V120ZM2410 160H2400V170H2410V160ZM2450 160H2440V170H2450V160ZM2440 120H2450V130H2440V120ZM2450 80H2440V90H2450V80ZM2440 40H2450V50H2440V40ZM2490 160H2480V170H2490V160ZM2480 120H2490V130H2480V120ZM2490 80H2480V90H2490V80ZM2520 160H2530V170H2520V160ZM2530 120H2520V130H2530V120ZM2560 160H2570V170H2560V160ZM2570 120H2560V130H2570V120ZM2560 80H2570V90H2560V80ZM2570 40H2560V50H2570V40ZM2600 160H2610V170H2600V160ZM2610 120H2600V130H2610V120ZM2600 80H2610V90H2600V80ZM2650 160H2640V170H2650V160ZM2640 120H2650V130H2640V120ZM2650 80H2640V90H2650V80ZM2640 40H2650V50H2640V40ZM2650 0H2640V10H2650V0ZM2680 160H2690V170H2680V160ZM2690 120H2680V130H2690V120ZM2680 80H2690V90H2680V80ZM2690 40H2680V50H2690V40ZM2720 160H2730V170H2720V160ZM2730 120H2720V130H2730V120ZM2720 80H2730V90H2720V80ZM2770 160H2760V170H2770V160ZM2760 120H2770V130H2760V120ZM2810 160H2800V170H2810V160ZM2840 160H2850V170H2840V160ZM2810 120H2800V130H2810V120ZM2840 120H2850V130H2840V120ZM2810 80H2800V90H2810V80ZM2800 40H2810V50H2800V40ZM2890 0H2880V10H2890V0ZM2880 40H2890V50H2880V40ZM2890 80H2880V90H2890V80ZM2880 120H2890V130H2880V120ZM2880 160H2890V170H2880V160ZM2920 160H2930V170H2920V160ZM2930 120H2920V130H2930V120ZM2920 80H2930V90H2920V80ZM2930 40H2920V50H2930V40ZM2960 160H2970V170H2960V160ZM2970 120H2960V130H2970V120ZM2960 80H2970V90H2960V80ZM3010 160H3000V170H3010V160ZM3000 120H3010V130H3000V120ZM3050 160H3040V170H3050V160ZM3040 120H3050V130H3040V120ZM3050 80H3040V90H3050V80ZM3040 40H3050V50H3040V40ZM3090 160H3080V170H3090V160ZM3080 120H3090V130H3080V120ZM3090 80H3080V90H3090V80ZM3120 160H3130V170H3120V160ZM3130 120H3120V130H3130V120ZM3120 80H3130V90H3120V80ZM3130 40H3120V50H3130V40ZM3120 0H3130V10H3120V0ZM3170 160H3160V170H3170V160ZM3160 120H3170V130H3160V120ZM3170 80H3160V90H3170V80ZM3160 40H3170V50H3160V40ZM3210 160H3200V170H3210V160ZM3200 120H3210V130H3200V120ZM3210 80H3200V90H3210V80ZM3240 160H3250V170H3240V160ZM3250 120H3240V130H3250V120ZM3280 160H3290V170H3280V160ZM3330 160H3320V170H3330V160ZM3280 120H3290V130H3280V120ZM3330 120H3320V130H3330V120ZM3280 80H3290V90H3280V80ZM3290 40H3280V50H3290V40ZM3360 0H3370V10H3360V0ZM3370 40H3360V50H3370V40ZM3360 80H3370V90H3360V80ZM3370 120H3360V130H3370V120ZM3370 160H3360V170H3370V160ZM3410 160H3400V170H3410V160ZM3400 120H3410V130H3400V120ZM3410 80H3400V90H3410V80ZM3400 40H3410V50H3400V40ZM3450 160H3440V170H3450V160ZM3440 120H3450V130H3440V120ZM3450 80H3440V90H3450V80ZM3480 160H3490V170H3480V160ZM3490 120H3480V130H3490V120ZM3520 160H3530V170H3520V160ZM3530 120H3520V130H3530V120ZM3520 80H3530V90H3520V80ZM3530 40H3520V50H3530V40ZM3560 160H3570V170H3560V160ZM3570 120H3560V130H3570V120ZM3560 80H3570V90H3560V80ZM3610 160H3600V170H3610V160ZM3600 120H3610V130H3600V120ZM3610 80H3600V90H3610V80ZM3600 40H3610V50H3600V40ZM3610 0H3600V10H3610V0ZM3640 160H3650V170H3640V160ZM3650 120H3640V130H3650V120ZM3640 80H3650V90H3640V80ZM3650 40H3640V50H3650V40ZM3680 160H3690V170H3680V160ZM3690 120H3680V130H3690V120ZM3680 80H3690V90H3680V80ZM3730 160H3720V170H3730V160ZM3720 120H3730V130H3720V120ZM3770 160H3760V170H3770V160ZM3800 160H3810V170H3800V160ZM3770 120H3760V130H3770V120ZM3800 120H3810V130H3800V120ZM3770 80H3760V90H3770V80ZM3760 40H3770V50H3760V40Z" fill="#627D98"/>
</svg>
