<svg width="170" height="490" viewBox="0 0 170 490" fill="none" xmlns="http://www.w3.org/2000/svg">
<path d="M170 10V7.43094e-06L160 6.99382e-06V10L170 10Z" fill="#627D98" fill-opacity="0.07"/>
<path d="M130 5.68248e-06V10H120V5.24537e-06L130 5.68248e-06Z" fill="#627D98" fill-opacity="0.07"/>
<path d="M90 10V3.93402e-06L80 3.49691e-06V10H90Z" fill="#627D98" fill-opacity="0.07"/>
<path d="M50 2.18557e-06V10H40V1.74846e-06L50 2.18557e-06Z" fill="#627D98" fill-opacity="0.07"/>
<path d="M10 4.37114e-07L10 10H1.9233e-05L1.96701e-05 0L10 4.37114e-07Z" fill="#627D98" fill-opacity="0.07"/>
<path d="M10 40L10 50H1.74846e-05L1.79217e-05 40H10Z" fill="#627D98" fill-opacity="0.07"/>
<path d="M50 50V40L40 40V50L50 50Z" fill="#627D98" fill-opacity="0.07"/>
<path d="M90 40V50H80V40H90Z" fill="#627D98" fill-opacity="0.07"/>
<path d="M130 50V40H120V50H130Z" fill="#627D98" fill-opacity="0.07"/>
<path d="M10 80V90H1.57361e-05L1.61732e-05 80H10Z" fill="#627D98" fill-opacity="0.07"/>
<path d="M50 90V80H40V90H50Z" fill="#627D98" fill-opacity="0.07"/>
<path d="M90 80V90L80 90V80L90 80Z" fill="#627D98" fill-opacity="0.07"/>
<path d="M10 130V120H1.44248e-05L1.39876e-05 130H10Z" fill="#627D98" fill-opacity="0.07"/>
<path d="M50 120V130H40V120H50Z" fill="#627D98" fill-opacity="0.07"/>
<path d="M10 170V160H1.26763e-05L1.22392e-05 170H10Z" fill="#627D98" fill-opacity="0.07"/>
<path d="M50 160V170H40V160H50Z" fill="#627D98" fill-opacity="0.07"/>
<path d="M90 170V160H80V170H90Z" fill="#627D98" fill-opacity="0.07"/>
<path d="M130 160V170H120V160H130Z" fill="#627D98" fill-opacity="0.07"/>
<path d="M10 210V200H1.09278e-05L1.04907e-05 210H10Z" fill="#627D98" fill-opacity="0.07"/>
<path d="M50 200V210H40V200H50Z" fill="#627D98" fill-opacity="0.07"/>
<path d="M90 210V200H80V210H90Z" fill="#627D98" fill-opacity="0.07"/>
<path d="M10 240L10 250H8.74228e-06L9.17939e-06 240H10Z" fill="#627D98" fill-opacity="0.07"/>
<path d="M50 250V240H40V250H50Z" fill="#627D98" fill-opacity="0.07"/>
<path d="M90 240V250H80V240H90Z" fill="#627D98" fill-opacity="0.07"/>
<path d="M130 250V240H120V250H130Z" fill="#627D98" fill-opacity="0.07"/>
<path d="M170 240V250H160V240H170Z" fill="#627D98" fill-opacity="0.07"/>
<path d="M10 290L10 280H7.43094e-06L6.99382e-06 290H10Z" fill="#627D98" fill-opacity="0.07"/>
<path d="M50 280V290H40V280H50Z" fill="#627D98" fill-opacity="0.07"/>
<path d="M90 290V280H80V290H90Z" fill="#627D98" fill-opacity="0.07"/>
<path d="M130 280V290H120V280H130Z" fill="#627D98" fill-opacity="0.07"/>
<path d="M10 330V320H5.68248e-06L5.24537e-06 330H10Z" fill="#627D98" fill-opacity="0.07"/>
<path d="M50 320V330H40V320H50Z" fill="#627D98" fill-opacity="0.07"/>
<path d="M90 330V320H80V330H90Z" fill="#627D98" fill-opacity="0.07"/>
<path d="M10 360V370H3.49691e-06L3.93403e-06 360H10Z" fill="#627D98" fill-opacity="0.07"/>
<path d="M50 370V360H40V370H50Z" fill="#627D98" fill-opacity="0.07"/>
<path d="M10 400V410H1.74846e-06L2.18557e-06 400H10Z" fill="#627D98" fill-opacity="0.07"/>
<path d="M10 450V440H4.37114e-07L0 450H10Z" fill="#627D98" fill-opacity="0.07"/>
<path d="M10 480L10 490H1.35103e-05L1.39474e-05 480H10Z" fill="#627D98" fill-opacity="0.07"/>
<path d="M50 410L50 400H40L40 410H50Z" fill="#627D98" fill-opacity="0.07"/>
<path d="M50 440V450H40V440H50Z" fill="#627D98" fill-opacity="0.07"/>
<path d="M90 410V400H80V410H90Z" fill="#627D98" fill-opacity="0.07"/>
<path d="M130 400V410H120V400H130Z" fill="#627D98" fill-opacity="0.07"/>
</svg>
