<svg width="153" height="97" viewBox="0 0 153 97" fill="none" xmlns="http://www.w3.org/2000/svg">
<g filter="url(#filter0_d)">
<path d="M16.131 10C16.131 7.23858 18.3696 5 21.131 5H121.115C123.876 5 126.115 7.23858 126.115 10V75.2779C126.115 78.0394 123.876 80.278 121.115 80.278H21.131C18.3696 80.278 16.131 78.0394 16.131 75.278V10Z" fill="#E0FCFF"/>
<path d="M121.115 2.5H21.131C16.9888 2.5 13.631 5.85788 13.631 10V75.278C13.631 79.4201 16.9888 82.778 21.131 82.778H121.115C125.257 82.778 128.615 79.4201 128.615 75.2779V10C128.615 5.85787 125.257 2.5 121.115 2.5Z" stroke="#050E16" stroke-width="5"/>
</g>
<rect x="61.1023" y="28.4631" width="24.4409" height="8.3099" fill="#0E7C86"/>
<rect x="25.9073" y="28.4631" width="24.4409" height="32.7508" fill="#0E7C86"/>
<rect x="91.8977" y="28.4631" width="24.4409" height="8.3099" fill="#0E7C86"/>
<rect x="61.1023" y="40.6836" width="24.4409" height="7.82109" fill="#0E7C86"/>
<rect x="91.8977" y="40.6836" width="24.4409" height="7.82109" fill="#0E7C86"/>
<rect x="61.1023" y="53.3928" width="24.4409" height="7.82109" fill="#0E7C86"/>
<rect x="91.8977" y="53.3928" width="24.4409" height="7.82109" fill="#0E7C86"/>
<rect x="60.6134" y="15.2651" width="55.7252" height="6.35463" fill="#0E7C86"/>
<rect x="25.9073" y="15.2651" width="24.4409" height="6.35463" fill="#0E7C86"/>
<rect x="16" y="70" width="110" height="14" fill="#050E16"/>
<path d="M72.9105 76.5644C72.9105 77.6443 72.0351 78.5197 70.9553 78.5197C69.8754 78.5197 69 77.6443 69 76.5644C69 75.4845 69.8754 74.6091 70.9553 74.6091C72.0351 74.6091 72.9105 75.4845 72.9105 76.5644Z" fill="#E0FCFF"/>
<rect x="61" y="84.6091" width="20" height="4" fill="#050E16"/>
<rect x="109.551" y="36.8291" width="40.9489" height="57.0799" rx="2.5" fill="#E0FCFF" stroke="#050E16" stroke-width="5"/>
<rect x="114.383" y="57.3035" width="14.6645" height="5.377" fill="#0E7C86"/>
<rect x="131.492" y="57.3035" width="14.6645" height="5.377" fill="#0E7C86"/>
<rect x="114.383" y="65.6133" width="14.6645" height="5.86581" fill="#0E7C86"/>
<rect x="131.492" y="65.6133" width="14.6645" height="5.86581" fill="#0E7C86"/>
<rect x="114.383" y="73.9233" width="14.6645" height="5.86581" fill="#0E7C86"/>
<rect x="131.492" y="73.9233" width="14.6645" height="5.86581" fill="#0E7C86"/>
<rect x="114.383" y="48.5046" width="31.7732" height="5.86581" fill="#0E7C86"/>
<rect x="109.495" y="89.5654" width="41.0607" height="4.39936" fill="#050E16"/>
<rect x="109.495" y="36.7729" width="41.0607" height="3.42173" fill="#050E16"/>
<circle cx="130.026" cy="92.9873" r="1.95527" fill="#E0FCFF"/>
<rect x="1" y="46.5718" width="26.8403" height="48.8371" rx="4" fill="#E0FCFF" stroke="#050E16" stroke-width="2"/>
<path d="M7.5 49.6091L7 47.6091H22L21.5 49.6091H7.5Z" fill="#050E16" stroke="#050E16"/>
<path d="M2.01318 89.5525H27.1777L26.9047 94.5854H2.01318V89.5525Z" fill="#050E16"/>
<circle cx="14.1757" cy="92.9873" r="1.95527" fill="#E0FCFF"/>
<rect x="5.86584" y="57.3035" width="16.6198" height="4.88818" fill="#0E7C86"/>
<rect x="5.86584" y="64.6357" width="16.6198" height="4.88818" fill="#0E7C86"/>
<rect x="5.86584" y="71.968" width="16.6198" height="4.88818" fill="#0E7C86"/>
<rect x="1" y="46.5718" width="26.8403" height="48.8371" rx="4" fill="#E0FCFF" stroke="#050E16" stroke-width="2"/>
<path d="M7.5 49.6091L7 47.6091H22L21.5 49.6091H7.5Z" fill="#050E16" stroke="#050E16"/>
<path d="M1 89.5H28L27.1777 94.5854H1.5L1 89.5Z" fill="#050E16"/>
<circle cx="14.1757" cy="92.9873" r="1.95527" fill="#E0FCFF"/>
<rect x="5.86584" y="57.3035" width="16.6198" height="4.88818" fill="#0E7C86"/>
<rect x="5.86584" y="64.6357" width="16.6198" height="4.88818" fill="#0E7C86"/>
<rect x="5.86584" y="71.968" width="16.6198" height="4.88818" fill="#0E7C86"/>
<path d="M57 95.6091L62 87.6091H80L86 95.6091H57Z" fill="#050E16" stroke="#050E16"/>
<defs>
<filter id="filter0_d" x="7.13098" y="0" width="127.984" height="93.278" filterUnits="userSpaceOnUse" color-interpolation-filters="sRGB">
<feFlood flood-opacity="0" result="BackgroundImageFix"/>
<feColorMatrix in="SourceAlpha" type="matrix" values="0 0 0 0 0 0 0 0 0 0 0 0 0 0 0 0 0 0 127 0"/>
<feOffset dy="4"/>
<feGaussianBlur stdDeviation="2"/>
<feColorMatrix type="matrix" values="0 0 0 0 0 0 0 0 0 0 0 0 0 0 0 0 0 0 0.25 0"/>
<feBlend mode="normal" in2="BackgroundImageFix" result="effect1_dropShadow"/>
<feBlend mode="normal" in="SourceGraphic" in2="effect1_dropShadow" result="shape"/>
</filter>
</defs>
</svg>
