<svg width="130" height="119" viewBox="0 0 130 119" fill="none" xmlns="http://www.w3.org/2000/svg">
<g filter="url(#filter0_d)">
<path d="M8.99976 33C8.99976 30.2386 11.2383 28 13.9998 28H115.358C118.119 28 120.358 30.2386 120.358 33V99.2186C120.358 101.98 118.119 104.219 115.358 104.219H13.9997C11.2383 104.219 8.99976 101.98 8.99976 99.2186V33Z" fill="#E0FCFF"/>
<path d="M115.358 25.5H13.9998C9.85762 25.5 6.49976 28.8579 6.49976 33V99.2186C6.49976 103.361 9.85761 106.719 13.9997 106.719H115.358C119.5 106.719 122.858 103.361 122.858 99.2186V33C122.858 28.8579 119.5 25.5 115.358 25.5Z" stroke="#050E16" stroke-width="5"/>
</g>
<path d="M7 93H123L120 107H8.99964L7 93Z" fill="#050E16"/>
<path d="M66.9592 99.9797C66.9592 101.073 66.0728 101.959 64.9795 101.959C63.8861 101.959 62.9998 101.073 62.9998 99.9797C62.9998 98.8863 63.8861 98 64.9795 98C66.0728 98 66.9592 98.8863 66.9592 99.9797Z" fill="#E0FCFF"/>
<rect x="54.9998" y="107" width="20" height="4" fill="#050E16"/>
<path d="M50.9998 118L55.9998 110H73.9998L79.9998 118H50.9998Z" fill="#050E16" stroke="#050E16"/>
<path d="M28.9998 14.1538L64.9998 0V14.1538V92C39.372 74.3062 29.3573 59.6044 28.9998 14.1538Z" fill="#0E7C86"/>
<path d="M102 14.1538L64.9998 0V14.1538V92C91.3394 74.3062 101.632 59.6044 102 14.1538Z" fill="#050E16"/>
<path d="M82.6135 23.2046C78.8797 19.4708 74.0325 17.053 68.8038 16.3162C63.575 15.5795 58.2485 16.5637 53.6283 19.1204C49.0081 21.6771 45.3451 25.6674 43.1922 30.489C41.0392 35.3106 40.5133 40.7017 41.6937 45.8484C42.8742 50.9952 45.6969 55.6183 49.7359 59.0197C53.7748 62.4211 58.8107 64.4163 64.0832 64.704C69.3558 64.9917 74.5789 63.5563 78.9639 60.6146C83.349 57.6728 86.658 53.3843 88.3915 48.3966L84.2657 46.9627C82.8434 51.0551 80.1284 54.5737 76.5306 56.9874C72.9327 59.401 68.6473 60.5787 64.3212 60.3427C59.9952 60.1066 55.8633 58.4696 52.5495 55.6788C49.2356 52.888 46.9196 49.0948 45.951 44.872C44.9825 40.6492 45.414 36.2258 47.1804 32.2698C48.9469 28.3138 51.9523 25.0398 55.7431 22.9421C59.5339 20.8444 63.9042 20.0368 68.1943 20.6413C72.4845 21.2458 76.4615 23.2296 79.525 26.2931L82.6135 23.2046Z" fill="#E0FCFF"/>
<path d="M83.0971 18.6055L86.2103 30.097L74.7017 27.0473L83.0971 18.6055Z" fill="#E0FCFF"/>
<path d="M63.9998 39L76.9998 46" stroke="#E0FCFF" stroke-width="4"/>
<path d="M64.9998 40.7695L64.9998 23.0001" stroke="#E0FCFF" stroke-width="4"/>
<defs>
<filter id="filter0_d" x="-0.000244141" y="23" width="129.358" height="94.2186" filterUnits="userSpaceOnUse" color-interpolation-filters="sRGB">
<feFlood flood-opacity="0" result="BackgroundImageFix"/>
<feColorMatrix in="SourceAlpha" type="matrix" values="0 0 0 0 0 0 0 0 0 0 0 0 0 0 0 0 0 0 127 0"/>
<feOffset dy="4"/>
<feGaussianBlur stdDeviation="2"/>
<feColorMatrix type="matrix" values="0 0 0 0 0 0 0 0 0 0 0 0 0 0 0 0 0 0 0.25 0"/>
<feBlend mode="normal" in2="BackgroundImageFix" result="effect1_dropShadow"/>
<feBlend mode="normal" in="SourceGraphic" in2="effect1_dropShadow" result="shape"/>
</filter>
</defs>
</svg>
