<svg width="130" height="96" viewBox="0 0 130 96" fill="none" xmlns="http://www.w3.org/2000/svg">
<g filter="url(#filter0_d)">
<path d="M9.5 10C9.5 7.23858 11.7386 5 14.5 5H115.858C118.62 5 120.858 7.23858 120.858 10V76.2186C120.858 78.98 118.62 81.2186 115.858 81.2186H14.5C11.7386 81.2186 9.5 78.98 9.5 76.2186V10Z" fill="#E0FCFF"/>
<path d="M14.5 2.5C10.3579 2.5 7 5.85787 7 10V76.2186C7 80.3607 10.3579 83.7186 14.5 83.7186H115.858C120 83.7186 123.358 80.3607 123.358 76.2186V10C123.358 5.85787 120 2.5 115.858 2.5H14.5Z" stroke="#050E16" stroke-width="5"/>
</g>
<path d="M6 70H122.5L122 83.5H9.99995L6.5 77L6 70Z" fill="#050E16"/>
<path d="M67.4594 76.9797C67.4594 78.0731 66.5731 78.9594 65.4797 78.9594C64.3863 78.9594 63.5 78.0731 63.5 76.9797C63.5 75.8863 64.3863 75 65.4797 75C66.5731 75 67.4594 75.8863 67.4594 76.9797Z" fill="#E0FCFF"/>
<rect x="55.5" y="84" width="20" height="4" fill="#050E16"/>
<path d="M51.5 95L56.5 87H74.5L80.5 95H51.5Z" fill="#050E16" stroke="#050E16"/>
<path fill-rule="evenodd" clip-rule="evenodd" d="M81.9566 13.5216C84.4539 11.0244 88.5027 11.0244 90.9999 13.5216C93.4971 16.0189 93.4971 20.0677 90.9999 22.5649L89.8703 23.6946L80.827 14.6513L81.9566 13.5216ZM79.3748 16.5124L88.0092 25.1468L57.2582 55.8978L57.2583 55.8979L54.7792 58.377L45.4684 62.1907L42.3309 59.0533L46.1443 49.7432L48.5915 47.296L48.6145 47.2728L79.3748 16.5124ZM39.5217 65L41.2012 61L43.5217 63.3205L39.5217 65Z" fill="#0E7C86"/>
<path fill-rule="evenodd" clip-rule="evenodd" d="M49.9591 9.89867L38.4805 21.3773L54.9483 37.8452L66.427 26.3665L63.6896 23.6291L58.8112 28.5076L56.0651 25.7615L60.9435 20.883L58.1975 18.137L53.319 23.0154L50.5729 20.2693L55.4514 15.3909L49.9591 9.89867Z" fill="#102A43"/>
<path fill-rule="evenodd" clip-rule="evenodd" d="M66.6531 49.6345L78.2163 38.0713L81.148 41.0031L76.2273 45.9238L78.9731 48.6696L83.8938 43.7489L86.6396 46.4947L81.7189 51.4154L84.4647 54.1613L89.3855 49.2405L94.8773 54.7323L83.3141 66.2955L66.6531 49.6345Z" fill="#102A43"/>
<defs>
<filter id="filter0_d" x="0.5" y="0" width="129.358" height="94.2186" filterUnits="userSpaceOnUse" color-interpolation-filters="sRGB">
<feFlood flood-opacity="0" result="BackgroundImageFix"/>
<feColorMatrix in="SourceAlpha" type="matrix" values="0 0 0 0 0 0 0 0 0 0 0 0 0 0 0 0 0 0 127 0"/>
<feOffset dy="4"/>
<feGaussianBlur stdDeviation="2"/>
<feColorMatrix type="matrix" values="0 0 0 0 0 0 0 0 0 0 0 0 0 0 0 0 0 0 0.25 0"/>
<feBlend mode="normal" in2="BackgroundImageFix" result="effect1_dropShadow"/>
<feBlend mode="normal" in="SourceGraphic" in2="effect1_dropShadow" result="shape"/>
</filter>
</defs>
</svg>
