<svg width="130" height="96" viewBox="0 0 130 96" fill="none" xmlns="http://www.w3.org/2000/svg">
<g filter="url(#filter0_d)">
<path d="M9 10C9 7.23858 11.2386 5 14 5H115.358C118.12 5 120.358 7.23858 120.358 10V76.2186C120.358 78.98 118.12 81.2186 115.358 81.2186H14C11.2386 81.2186 9 78.98 9 76.2186V10Z" fill="#E0FCFF"/>
<path d="M115.358 2.5H14C9.85786 2.5 6.5 5.85787 6.5 10V76.2186C6.5 80.3607 9.85785 83.7186 14 83.7186H115.358C119.5 83.7186 122.858 80.3607 122.858 76.2186V10C122.858 5.85787 119.5 2.5 115.358 2.5Z" stroke="#050E16" stroke-width="5"/>
</g>
<path d="M5.5 70H122L121.5 83.5H9.49995L6 77L5.5 70Z" fill="#050E16"/>
<path d="M66.9594 76.9797C66.9594 78.0731 66.0731 78.9594 64.9797 78.9594C63.8863 78.9594 63 78.0731 63 76.9797C63 75.8863 63.8863 75 64.9797 75C66.0731 75 66.9594 75.8863 66.9594 76.9797Z" fill="#E0FCFF"/>
<path d="M51.6208 38.4493L63.449 26.623L59.5713 22.7453L54.1503 28.1663C54.0856 28.2311 54.0088 28.2824 53.9243 28.3175C53.8398 28.3526 53.7492 28.3706 53.6576 28.3706C53.5661 28.3706 53.4755 28.3526 53.391 28.3175C53.3065 28.2824 53.2297 28.2311 53.165 28.1663L52.1798 27.1811C51.9073 26.9086 51.9073 26.4674 52.1798 26.1958L57.6008 20.7748L54.6442 17.8174C53.5553 16.7284 51.7904 16.7284 50.7015 17.8174L42.8169 25.7019C41.7289 26.7908 41.728 28.5556 42.8169 29.6446L51.6208 38.4493ZM85.7632 28.1839C87.412 26.5351 87.4111 23.8624 85.7632 22.2136L81.7862 18.2366C80.1374 16.5878 77.4638 16.5878 75.8141 18.2366L71.7694 22.2804L81.7185 32.2294L85.7632 28.1839ZM69.7805 24.2702L43.6774 50.3697L42.0286 59.8125C41.8062 61.086 42.9154 62.1951 44.1898 61.971L53.6335 60.3152L79.7296 34.2183L69.7805 24.2702ZM86.1833 49.3563L83.2267 46.3997L77.8057 51.8207C77.5332 52.0932 77.092 52.0932 76.8204 51.8207L75.8352 50.8355C75.5636 50.563 75.5636 50.1218 75.8352 49.8502L81.2562 44.4293L77.3768 40.5498L65.5486 52.3762L74.356 61.1826C75.445 62.2716 77.2098 62.2716 78.2987 61.1826L86.1833 53.299C87.2722 52.2101 87.2722 50.4453 86.1833 49.3563Z" fill="#0E7C86"/>
<rect x="55" y="84" width="20" height="4" fill="#050E16"/>
<path d="M51 95L56 87H74L80 95H51Z" fill="#050E16" stroke="#050E16"/>
<defs>
<filter id="filter0_d" x="0" y="0" width="129.358" height="94.2186" filterUnits="userSpaceOnUse" color-interpolation-filters="sRGB">
<feFlood flood-opacity="0" result="BackgroundImageFix"/>
<feColorMatrix in="SourceAlpha" type="matrix" values="0 0 0 0 0 0 0 0 0 0 0 0 0 0 0 0 0 0 127 0"/>
<feOffset dy="4"/>
<feGaussianBlur stdDeviation="2"/>
<feColorMatrix type="matrix" values="0 0 0 0 0 0 0 0 0 0 0 0 0 0 0 0 0 0 0.25 0"/>
<feBlend mode="normal" in2="BackgroundImageFix" result="effect1_dropShadow"/>
<feBlend mode="normal" in="SourceGraphic" in2="effect1_dropShadow" result="shape"/>
</filter>
</defs>
</svg>
