<svg width="256" height="256" viewBox="0 0 256 256" fill="none" xmlns="http://www.w3.org/2000/svg">
<path d="M35.3659 82.4643C58.4068 59.4234 95.7636 59.4234 118.805 82.4643L173.018 136.678C196.059 159.719 196.059 197.075 173.018 220.116L170.495 222.639C155.585 237.549 129.617 231.384 120.644 212.302C112.689 195.385 102.309 177.192 90.2998 165.182C78.2902 153.173 60.097 142.793 43.1803 134.838C24.0984 125.865 17.9328 99.8974 32.8432 84.987L35.3659 82.4643Z" fill="#D9E2EC"/>
<path fill-rule="evenodd" clip-rule="evenodd" d="M100.211 94.7046L89.1984 83.6924L78.1862 94.7047L67.1741 83.6925L56.1619 94.7047L67.174 105.717L56.1619 116.729L67.1741 127.741L78.1862 116.729L89.1984 127.741L100.211 116.729L89.1984 105.717L100.211 94.7046Z" fill="#0E7C86"/>
<circle cx="132.146" cy="184.02" r="8.02266" transform="rotate(75.4939 132.146 184.02)" fill="#0E7C86"/>
<circle cx="156.373" cy="159.793" r="8.02266" transform="rotate(75.4939 156.373 159.793)" fill="#0E7C86"/>
<circle cx="159.85" cy="186.916" r="8.02266" transform="rotate(75.4939 159.85 186.916)" fill="#0E7C86"/>
<path fill-rule="evenodd" clip-rule="evenodd" d="M202.914 92.5022C202.914 97.2521 201.027 101.807 197.668 105.166L194.373 101.871C196.858 99.3864 198.254 96.0163 198.254 92.5022C198.254 88.988 196.858 85.6179 194.373 83.133C191.889 80.6482 188.518 79.2522 185.004 79.2522C181.681 79.2522 178.486 80.5006 176.048 82.7378L159.676 99.1094L161.879 101.312L149.765 113.425L147.563 111.223L146.461 112.324L143.158 109.02L144.259 107.919L142.057 105.717L154.17 93.6034L156.372 95.8058L172.891 79.2876L172.903 79.2996C176.198 76.2784 180.514 74.5926 185.004 74.5926C189.754 74.5926 194.31 76.4795 197.668 79.8382C201.027 83.1969 202.914 87.7522 202.914 92.5022ZM194.365 101.863C191.006 105.221 189.119 109.777 189.119 114.527C189.119 119.276 191.006 123.832 194.365 127.191C197.723 130.549 202.279 132.436 207.029 132.436C211.778 132.436 216.334 130.549 219.692 127.191L216.377 123.875C213.898 126.355 210.535 127.748 207.029 127.748C203.522 127.748 200.159 126.355 197.68 123.875C195.2 121.396 193.807 118.033 193.807 114.527C193.807 111.02 195.2 107.657 197.68 105.178L194.365 101.863Z" fill="#D9E2EC"/>
<rect x="109.021" y="132.146" width="20.2456" height="6.22942" transform="rotate(45 109.021 132.146)" fill="#0E7C86"/>
</svg>
