<svg width="526" height="526" viewBox="0 0 526 526" fill="none" xmlns="http://www.w3.org/2000/svg">
<path d="M395.013 0H0V526H190.422L195.479 513H13V13H389.957L395.013 0Z" fill="#F5F5F7"/>
<path d="M242.419 513H513V13H436.897L441.953 0H526V526H237.362L242.419 513Z" fill="#F5F5F7"/>
<path d="M344.757 130.048L298.655 130L195 390.734L243.342 390.784L344.757 130.048Z" fill="#F5F5F7"/>
<path d="M347.089 244.736L403.52 390.95L452 391L370.461 184.648L347.089 244.736Z" fill="#F5F5F7"/>
<path d="M286.062 279.807L226.887 130.052L176.655 130L73 390.734L121.48 390.784L201.715 184.174L262.252 341.024L286.062 279.807Z" fill="#F5F5F7"/>
<path d="M289.769 390.958L330 391L309.718 339.671L289.769 390.958Z" fill="#F5F5F7"/>
</svg>
