<svg width="252" height="252" viewBox="0 0 252 252" fill="none" xmlns="http://www.w3.org/2000/svg">
<path d="M133.5 132L153 86L152.5 85.5L133.214 131" stroke="#E5E5E7"/>
<path d="M206 11L210.5 1L251 1.5V11H206Z" fill="#E5E5E7" stroke="#E5E5E7"/>
<path d="M165.5 1H189.5L185 11L1 10.5V1H165.5Z" fill="#E5E5E7" stroke="#E5E5E7"/>
<path d="M11 251H82L86.5 241H11V251Z" fill="#E5E5E7" stroke="#E5E5E7"/>
<path d="M240 241H106.549L102 251H240V241Z" fill="#E5E5E7" stroke="#E5E5E7"/>
<path d="M1 11H11V131V251H1V11Z" fill="#E5E5E7" stroke="#E5E5E7"/>
<path d="M251 11.0001L241 11.0001V251H251V11.0001Z" fill="#E5E5E7" stroke="#E5E5E7"/>
<path d="M48 190.5H28.5H28L85 61H98L133.5 132L125 152L108.5 190.5H88.5L114.832 130.881L92.5 84.5L48 190.5Z" fill="#E5E5E7"/>
<path d="M125 152L92.5 84.5L48 190.5H28.5H28L85 61H98L133.5 132L125 152ZM125 152L108.5 190.5H88.5L115 130.5" stroke="#E5E5E7"/>
<path d="M145 61L123.083 111L133 130.5L152.5 84.5L153 86L161 67.5L158 61H145Z" fill="#E5E5E7" stroke="#E5E5E7"/>
<path d="M135.5 174.5L143.259 190.5H162.5L144.5 154L140 164.5L135.5 174.5Z" fill="#E5E5E7" stroke="#E5E5E7"/>
<path d="M172 89L163.5 108L203 190.5H222.5L172 89Z" fill="#E5E5E7" stroke="#E5E5E7"/>
</svg>
