<svg width="231" height="231" viewBox="0 0 231 231" fill="none" xmlns="http://www.w3.org/2000/svg">
<path d="M123.5 122L143 76L142.5 75.5L123.214 121" stroke="#E5E5E7"/>
<path d="M191 10L194.628 1H230V10H191Z" fill="#E5E5E7" stroke="#E5E5E7"/>
<path d="M155.273 1H175L171.399 10H1V1H155.273Z" fill="#E5E5E7" stroke="#E5E5E7"/>
<path d="M1 230H77.0776L81 221H1V230Z" fill="#E5E5E7" stroke="#E5E5E7"/>
<path d="M101.705 221L98 230H230V221H101.705Z" fill="#E5E5E7" stroke="#E5E5E7"/>
<path d="M10 10V221H1V10H10Z" fill="#E5E5E7" stroke="#E5E5E7"/>
<path d="M230 11H221V221H230V11Z" fill="#E5E5E7" stroke="#E5E5E7"/>
<path d="M38 180.5H18.5H18L75 51H88L123.5 122L115 142L98.5 180.5H78.5L104.832 120.881L82.5 74.5L38 180.5Z" fill="#E5E5E7"/>
<path d="M115 142L82.5 74.5L38 180.5H18.5H18L75 51H88L123.5 122L115 142ZM115 142L98.5 180.5H78.5L105 120.5" stroke="#E5E5E7"/>
<path d="M135 51L113.083 101L123 120.5L142.5 74.5L143 76L151 57.5L148 51H135Z" fill="#E5E5E7" stroke="#E5E5E7"/>
<path d="M125.5 164.5L133.259 180.5H152.5L134.5 144L130 154.5L125.5 164.5Z" fill="#E5E5E7" stroke="#E5E5E7"/>
<path d="M162 79L154 98.5L193 180.5H212.5L162 79Z" fill="#E5E5E7" stroke="#E5E5E7"/>
</svg>
