<svg width="209" height="20" viewBox="0 0 209 20" fill="none" xmlns="http://www.w3.org/2000/svg">
<line x1="15" y1="4.5" x2="194" y2="4.5" stroke="white" stroke-width="3"/>
<line x1="15" y1="15.5" x2="194" y2="15.5" stroke="white" stroke-width="3"/>
<path d="M16 4.5657C14.5 6 13.5 7 10 10.0103C12.0002 11.973 14.5 14 16 15.4548" stroke="white" stroke-width="3"/>
<path d="M193 5.17588C193.696 6 195 7.5 198 10.0192C196 12 194.5 13.5 193 14.8625" stroke="white" stroke-width="3"/>
<path d="M12.4543 2C15.504 4.01807 18.0373 4.46839 18 7.5V13C17.989 14.3185 15.3775 16.0142 12.4545 18C7.69782 13.1319 5.60227 11.4128 3.00001 10.3478C5.98056 8.67807 8.04737 6.87466 12.4543 2Z" stroke="white" stroke-width="2"/>
<path d="M196.546 2C193.496 4.01807 190.963 4.46839 191 7.5V13C191.011 14.3185 193.623 16.0142 196.546 18C201 13 203.398 11.4128 206 10.3478C203.02 8.67807 200 6.5 196.546 2Z" stroke="white" stroke-width="2"/>
<rect x="20" y="7" width="139" height="6" fill="#C4C4C4"/>
</svg>
