<svg width="396" height="396" viewBox="0 0 396 396" fill="none" xmlns="http://www.w3.org/2000/svg">
<path d="M10.6167 194.464C8.66412 192.512 5.49832 192.512 3.54567 194.464C1.59301 196.417 1.59305 199.583 3.54567 201.536C5.49828 203.488 8.66408 203.488 10.6167 201.536C12.5694 199.583 12.5693 196.417 10.6167 194.464Z" fill="#9FB3C8"/>
<path d="M53.0431 194.464C51.0905 192.512 47.9247 192.512 45.9721 194.464C44.0194 196.417 44.0195 199.583 45.9721 201.536C47.9247 203.488 51.0905 203.488 53.0431 201.536C54.9958 199.583 54.9958 196.417 53.0431 194.464Z" fill="#9FB3C8"/>
<path d="M67.1853 215.678C69.1379 213.725 72.3037 213.725 74.2563 215.678C76.209 217.63 76.209 220.796 74.2563 222.749C72.3037 224.701 69.1379 224.701 67.1853 222.749C65.2326 220.796 65.2326 217.63 67.1853 215.678Z" fill="#9FB3C8"/>
<path d="M95.4695 236.891C93.5169 234.938 90.3511 234.938 88.3985 236.891C86.4458 238.844 86.4459 242.009 88.3985 243.962C90.3511 245.915 93.5169 245.915 95.4695 243.962C97.4222 242.009 97.4222 238.843 95.4695 236.891Z" fill="#9FB3C8"/>
<path d="M109.612 258.104C111.564 256.151 114.73 256.151 116.683 258.104C118.635 260.057 118.635 263.222 116.683 265.175C114.73 267.128 111.564 267.128 109.612 265.175C107.659 263.223 107.659 260.057 109.612 258.104Z" fill="#9FB3C8"/>
<path d="M137.896 279.317C135.943 277.365 132.778 277.365 130.825 279.317C128.872 281.27 128.872 284.436 130.825 286.388C132.778 288.341 135.943 288.341 137.896 286.388C139.849 284.436 139.849 281.27 137.896 279.317Z" fill="#9FB3C8"/>
<path d="M243.962 215.678C242.009 213.725 238.844 213.725 236.891 215.678C234.938 217.63 234.938 220.796 236.891 222.749C238.844 224.701 242.009 224.701 243.962 222.749C245.915 220.796 245.915 217.63 243.962 215.678Z" fill="#9FB3C8"/>
<path d="M258.104 236.891C260.057 234.938 263.223 234.938 265.175 236.891C267.128 238.843 267.128 242.009 265.175 243.962C263.223 245.915 260.057 245.915 258.104 243.962C256.151 242.009 256.151 238.844 258.104 236.891Z" fill="#9FB3C8"/>
<path d="M201.536 342.957C199.583 341.004 196.417 341.004 194.464 342.957C192.512 344.91 192.512 348.075 194.464 350.028C196.417 351.981 199.583 351.981 201.536 350.028C203.488 348.075 203.488 344.91 201.536 342.957Z" fill="#9FB3C8"/>
<path d="M201.536 385.383C199.583 383.431 196.417 383.431 194.464 385.383C192.512 387.336 192.512 390.502 194.464 392.454C196.417 394.407 199.583 394.407 201.536 392.454C203.488 390.502 203.488 387.336 201.536 385.383Z" fill="#9FB3C8"/>
<path d="M236.891 300.53C238.844 298.578 242.009 298.578 243.962 300.53C245.915 302.483 245.915 305.649 243.962 307.602C242.009 309.554 238.844 309.554 236.891 307.602C234.938 305.649 234.938 302.483 236.891 300.53Z" fill="#9FB3C8"/>
<path d="M286.388 258.104C284.436 256.151 281.27 256.151 279.317 258.104C277.365 260.057 277.365 263.223 279.317 265.175C281.27 267.128 284.436 267.128 286.388 265.175C288.341 263.222 288.341 260.057 286.388 258.104Z" fill="#9FB3C8"/>
<path d="M258.104 194.464C260.057 192.512 263.223 192.512 265.175 194.464C267.128 196.417 267.128 199.583 265.175 201.536C263.223 203.488 260.057 203.488 258.104 201.536C256.151 199.583 256.151 196.417 258.104 194.464Z" fill="#9FB3C8"/>
<path d="M286.388 215.678C284.436 213.725 281.27 213.725 279.317 215.678C277.365 217.63 277.365 220.796 279.317 222.749C281.27 224.701 284.436 224.701 286.388 222.749C288.341 220.796 288.341 217.63 286.388 215.678Z" fill="#9FB3C8"/>
<path d="M300.531 194.464C302.483 192.512 305.649 192.512 307.602 194.464C309.554 196.417 309.554 199.583 307.602 201.536C305.649 203.488 302.483 203.488 300.531 201.536C298.578 199.583 298.578 196.417 300.531 194.464Z" fill="#9FB3C8"/>
<path d="M307.602 236.891C305.649 234.938 302.483 234.938 300.531 236.891C298.578 238.844 298.578 242.009 300.531 243.962C302.483 245.915 305.649 245.915 307.602 243.962C309.554 242.009 309.554 238.843 307.602 236.891Z" fill="#9FB3C8"/>
<path d="M321.744 215.678C323.696 213.725 326.862 213.725 328.815 215.678C330.767 217.63 330.767 220.796 328.815 222.749C326.862 224.701 323.696 224.701 321.744 222.749C319.791 220.796 319.791 217.63 321.744 215.678Z" fill="#9FB3C8"/>
<path d="M350.028 194.464C348.075 192.512 344.91 192.512 342.957 194.464C341.004 196.417 341.004 199.583 342.957 201.536C344.91 203.488 348.075 203.488 350.028 201.536C351.981 199.583 351.981 196.417 350.028 194.464Z" fill="#9FB3C8"/>
<path d="M215.678 279.317C217.63 277.365 220.796 277.365 222.749 279.317C224.701 281.27 224.701 284.436 222.749 286.388C220.796 288.341 217.63 288.341 215.678 286.388C213.725 284.436 213.725 281.27 215.678 279.317Z" fill="#9FB3C8"/>
<path d="M243.962 258.104C242.009 256.151 238.844 256.151 236.891 258.104C234.938 260.057 234.938 263.223 236.891 265.175C238.844 267.128 242.009 267.128 243.962 265.175C245.915 263.222 245.915 260.057 243.962 258.104Z" fill="#9FB3C8"/>
<path d="M215.678 236.891C217.63 234.938 220.796 234.938 222.749 236.891C224.701 238.843 224.701 242.009 222.749 243.962C220.796 245.915 217.63 245.915 215.678 243.962C213.725 242.009 213.725 238.844 215.678 236.891Z" fill="#9FB3C8"/>
<path d="M265.175 279.317C263.223 277.365 260.057 277.365 258.104 279.317C256.151 281.27 256.151 284.436 258.104 286.388C260.057 288.341 263.223 288.341 265.175 286.388C267.128 284.436 267.128 281.27 265.175 279.317Z" fill="#9FB3C8"/>
<path d="M215.678 321.744C217.63 319.791 220.796 319.791 222.749 321.744C224.701 323.696 224.701 326.862 222.749 328.815C220.796 330.767 217.63 330.767 215.678 328.815C213.725 326.862 213.725 323.696 215.678 321.744Z" fill="#9FB3C8"/>
<path d="M180.322 321.744C178.37 319.791 175.204 319.791 173.251 321.744C171.299 323.696 171.299 326.862 173.251 328.815C175.204 330.767 178.37 330.767 180.322 328.815C182.275 326.862 182.275 323.696 180.322 321.744Z" fill="#9FB3C8"/>
<path d="M152.038 300.53C153.991 298.578 157.157 298.578 159.109 300.53C161.062 302.483 161.062 305.649 159.109 307.602C157.156 309.554 153.991 309.554 152.038 307.602C150.085 305.649 150.085 302.483 152.038 300.53Z" fill="#9FB3C8"/>
<path d="M194.464 300.53C196.417 298.578 199.583 298.578 201.536 300.53C203.488 302.483 203.488 305.649 201.536 307.602C199.583 309.554 196.417 309.554 194.464 307.602C192.512 305.649 192.512 302.483 194.464 300.53Z" fill="#9FB3C8"/>
<path d="M180.322 279.317C178.37 277.365 175.204 277.365 173.251 279.317C171.299 281.27 171.299 284.436 173.251 286.388C175.204 288.341 178.37 288.341 180.322 286.388C182.275 284.436 182.275 281.27 180.322 279.317Z" fill="#9FB3C8"/>
<path d="M152.038 258.104C153.991 256.151 157.157 256.151 159.109 258.104C161.062 260.057 161.062 263.222 159.109 265.175C157.156 267.128 153.991 267.128 152.038 265.175C150.085 263.223 150.085 260.057 152.038 258.104Z" fill="#9FB3C8"/>
<path d="M137.896 236.891C135.943 234.938 132.778 234.938 130.825 236.891C128.872 238.844 128.872 242.009 130.825 243.962C132.778 245.915 135.943 245.915 137.896 243.962C139.849 242.009 139.849 238.843 137.896 236.891Z" fill="#9FB3C8"/>
<path d="M109.612 215.678C111.564 213.725 114.73 213.725 116.683 215.678C118.635 217.63 118.635 220.796 116.683 222.749C114.73 224.701 111.564 224.701 109.612 222.749C107.659 220.796 107.659 217.63 109.612 215.678Z" fill="#9FB3C8"/>
<path d="M95.4695 194.464C93.5169 192.512 90.3511 192.512 88.3985 194.464C86.4458 196.417 86.4459 199.583 88.3985 201.536C90.3511 203.488 93.5169 203.488 95.4695 201.536C97.4222 199.583 97.4222 196.417 95.4695 194.464Z" fill="#9FB3C8"/>
<path d="M194.464 258.104C196.417 256.151 199.583 256.151 201.536 258.104C203.488 260.057 203.488 263.222 201.536 265.175C199.583 267.128 196.417 267.128 194.464 265.175C192.512 263.223 192.512 260.057 194.464 258.104Z" fill="#9FB3C8"/>
<path d="M180.322 236.891C178.37 234.938 175.204 234.938 173.251 236.891C171.299 238.844 171.299 242.009 173.251 243.962C175.204 245.915 178.37 245.915 180.322 243.962C182.275 242.009 182.275 238.843 180.322 236.891Z" fill="#9FB3C8"/>
<path d="M152.038 215.678C153.991 213.725 157.157 213.725 159.109 215.678C161.062 217.63 161.062 220.796 159.109 222.749C157.156 224.701 153.991 224.701 152.038 222.749C150.085 220.796 150.085 217.63 152.038 215.678Z" fill="#9FB3C8"/>
<path d="M137.896 194.464C135.943 192.512 132.778 192.512 130.825 194.464C128.872 196.417 128.872 199.583 130.825 201.536C132.778 203.488 135.943 203.488 137.896 201.536C139.849 199.583 139.849 196.417 137.896 194.464Z" fill="#9FB3C8"/>
<path d="M194.464 215.678C196.417 213.725 199.583 213.725 201.536 215.678C203.488 217.63 203.488 220.796 201.536 222.749C199.583 224.701 196.417 224.701 194.464 222.749C192.512 220.796 192.512 217.63 194.464 215.678Z" fill="#9FB3C8"/>
<path d="M222.749 194.464C220.796 192.512 217.63 192.512 215.678 194.464C213.725 196.417 213.725 199.583 215.678 201.536C217.63 203.488 220.796 203.488 222.749 201.536C224.701 199.583 224.701 196.417 222.749 194.464Z" fill="#9FB3C8"/>
<path d="M173.251 194.464C175.204 192.512 178.37 192.512 180.322 194.464C182.275 196.417 182.275 199.583 180.322 201.536C178.37 203.488 175.204 203.488 173.251 201.536C171.299 199.583 171.299 196.417 173.251 194.464Z" fill="#9FB3C8"/>
<path d="M180.322 364.17C178.37 362.217 175.204 362.217 173.251 364.17C171.299 366.123 171.299 369.289 173.251 371.241C175.204 373.194 178.37 373.194 180.322 371.241C182.275 369.289 182.275 366.123 180.322 364.17Z" fill="#9FB3C8"/>
<path d="M152.038 342.957C153.991 341.004 157.157 341.004 159.109 342.957C161.062 344.91 161.062 348.075 159.109 350.028C157.156 351.981 153.991 351.981 152.038 350.028C150.085 348.075 150.085 344.91 152.038 342.957Z" fill="#9FB3C8"/>
<path d="M137.896 321.744C135.943 319.791 132.778 319.791 130.825 321.744C128.872 323.696 128.872 326.862 130.825 328.815C132.778 330.767 135.943 330.767 137.896 328.815C139.849 326.862 139.849 323.696 137.896 321.744Z" fill="#9FB3C8"/>
<path d="M109.612 300.53C111.564 298.578 114.73 298.578 116.683 300.53C118.635 302.483 118.635 305.649 116.683 307.602C114.73 309.554 111.564 309.554 109.612 307.602C107.659 305.649 107.659 302.483 109.612 300.53Z" fill="#9FB3C8"/>
<path d="M95.4695 279.317C93.5169 277.365 90.3511 277.365 88.3985 279.317C86.4458 281.27 86.4459 284.436 88.3985 286.388C90.3511 288.341 93.5169 288.341 95.4695 286.388C97.4222 284.436 97.4222 281.27 95.4695 279.317Z" fill="#9FB3C8"/>
<path d="M67.1853 258.104C69.1379 256.151 72.3037 256.151 74.2563 258.104C76.209 260.057 76.209 263.222 74.2563 265.175C72.3037 267.128 69.1379 267.128 67.1853 265.175C65.2326 263.223 65.2326 260.057 67.1853 258.104Z" fill="#9FB3C8"/>
<path d="M53.0431 236.891C51.0905 234.938 47.9247 234.938 45.9721 236.891C44.0194 238.844 44.0194 242.009 45.9721 243.962C47.9247 245.915 51.0905 245.915 53.0431 243.962C54.9958 242.009 54.9958 238.843 53.0431 236.891Z" fill="#9FB3C8"/>
<path d="M24.7589 215.678C26.7115 213.725 29.8773 213.725 31.8299 215.678C33.7826 217.63 33.7826 220.796 31.8299 222.749C29.8773 224.701 26.7115 224.701 24.7589 222.749C22.8063 220.796 22.8062 217.63 24.7589 215.678Z" fill="#9FB3C8"/>
<path d="M215.678 364.17C217.63 362.217 220.796 362.217 222.749 364.17C224.701 366.123 224.701 369.289 222.749 371.241C220.796 373.194 217.63 373.194 215.678 371.241C213.725 369.289 213.725 366.123 215.678 364.17Z" fill="#9FB3C8"/>
<path d="M243.962 342.957C242.009 341.004 238.844 341.004 236.891 342.957C234.938 344.91 234.938 348.075 236.891 350.028C238.844 351.981 242.009 351.981 243.962 350.028C245.915 348.075 245.915 344.91 243.962 342.957Z" fill="#9FB3C8"/>
<path d="M258.104 321.744C260.057 319.791 263.223 319.791 265.175 321.744C267.128 323.696 267.128 326.862 265.175 328.815C263.223 330.767 260.057 330.767 258.104 328.815C256.151 326.862 256.151 323.696 258.104 321.744Z" fill="#9FB3C8"/>
<path d="M286.388 300.53C284.436 298.578 281.27 298.578 279.317 300.53C277.365 302.483 277.365 305.649 279.317 307.602C281.27 309.554 284.436 309.554 286.388 307.602C288.341 305.649 288.341 302.483 286.388 300.53Z" fill="#9FB3C8"/>
<path d="M300.531 279.317C302.483 277.365 305.649 277.365 307.602 279.317C309.554 281.27 309.554 284.436 307.602 286.388C305.649 288.341 302.483 288.341 300.531 286.388C298.578 284.436 298.578 281.27 300.531 279.317Z" fill="#9FB3C8"/>
<path d="M328.815 258.104C326.862 256.151 323.696 256.151 321.744 258.104C319.791 260.057 319.791 263.223 321.744 265.175C323.696 267.128 326.862 267.128 328.815 265.175C330.767 263.222 330.767 260.057 328.815 258.104Z" fill="#9FB3C8"/>
<path d="M342.957 236.891C344.91 234.938 348.075 234.938 350.028 236.891C351.981 238.843 351.981 242.009 350.028 243.962C348.075 245.915 344.91 245.915 342.957 243.962C341.004 242.009 341.004 238.844 342.957 236.891Z" fill="#9FB3C8"/>
<path d="M371.241 215.678C369.289 213.725 366.123 213.725 364.17 215.678C362.217 217.63 362.217 220.796 364.17 222.749C366.123 224.701 369.289 224.701 371.241 222.749C373.194 220.796 373.194 217.63 371.241 215.678Z" fill="#9FB3C8"/>
<path d="M385.383 194.464C387.336 192.512 390.502 192.512 392.454 194.464C394.407 196.417 394.407 199.583 392.454 201.536C390.502 203.488 387.336 203.488 385.383 201.536C383.431 199.583 383.431 196.417 385.383 194.464Z" fill="#9FB3C8"/>
</svg>
