<svg width="3810" height="372" viewBox="0 0 3810 372" fill="none" xmlns="http://www.w3.org/2000/svg">
<path d="M0 0H10V10H0V0Z" fill="#627D98" fill-opacity="0.22"/>
<path d="M10 40H0V50H10V40Z" fill="#627D98" fill-opacity="0.22"/>
<path d="M0 80H10V90H0V80Z" fill="#627D98" fill-opacity="0.22"/>
<path d="M10 120H0V130H10V120Z" fill="#627D98" fill-opacity="0.22"/>
<path d="M10 160H0V170H10V160Z" fill="#627D98" fill-opacity="0.22"/>
<path d="M50 160H40V170H50V160Z" fill="#627D98" fill-opacity="0.22"/>
<path d="M40 120H50V130H40V120Z" fill="#627D98" fill-opacity="0.22"/>
<path d="M50 80H40V90H50V80Z" fill="#627D98" fill-opacity="0.22"/>
<path d="M40 40H50V50H40V40Z" fill="#627D98" fill-opacity="0.22"/>
<path d="M90 160H80V170H90V160Z" fill="#627D98" fill-opacity="0.22"/>
<path d="M80 120H90V130H80V120Z" fill="#627D98" fill-opacity="0.22"/>
<path d="M90 80H80V90H90V80Z" fill="#627D98" fill-opacity="0.22"/>
<path d="M120 160H130V170H120V160Z" fill="#627D98" fill-opacity="0.22"/>
<path d="M130 120H120V130H130V120Z" fill="#627D98" fill-opacity="0.22"/>
<path d="M160 160H170V170H160V160Z" fill="#627D98" fill-opacity="0.22"/>
<path d="M170 120H160V130H170V120Z" fill="#627D98" fill-opacity="0.22"/>
<path d="M160 80H170V90H160V80Z" fill="#627D98" fill-opacity="0.22"/>
<path d="M170 40H160V50H170V40Z" fill="#627D98" fill-opacity="0.22"/>
<path d="M200 160H210V170H200V160Z" fill="#627D98" fill-opacity="0.22"/>
<path d="M210 120H200V130H210V120Z" fill="#627D98" fill-opacity="0.22"/>
<path d="M200 80H210V90H200V80Z" fill="#627D98" fill-opacity="0.22"/>
<path d="M250 160H240V170H250V160Z" fill="#627D98" fill-opacity="0.22"/>
<path d="M240 120H250V130H240V120Z" fill="#627D98" fill-opacity="0.22"/>
<path d="M250 80H240V90H250V80Z" fill="#627D98" fill-opacity="0.22"/>
<path d="M240 40H250V50H240V40Z" fill="#627D98" fill-opacity="0.22"/>
<path d="M250 0H240V10H250V0Z" fill="#627D98" fill-opacity="0.22"/>
<path d="M280 160H290V170H280V160Z" fill="#627D98" fill-opacity="0.22"/>
<path d="M290 120H280V130H290V120Z" fill="#627D98" fill-opacity="0.22"/>
<path d="M280 80H290V90H280V80Z" fill="#627D98" fill-opacity="0.22"/>
<path d="M290 40H280V50H290V40Z" fill="#627D98" fill-opacity="0.22"/>
<path d="M320 160H330V170H320V160Z" fill="#627D98" fill-opacity="0.22"/>
<path d="M330 120H320V130H330V120Z" fill="#627D98" fill-opacity="0.22"/>
<path d="M320 80H330V90H320V80Z" fill="#627D98" fill-opacity="0.22"/>
<path d="M370 160H360V170H370V160Z" fill="#627D98" fill-opacity="0.22"/>
<path d="M360 120H370V130H360V120Z" fill="#627D98" fill-opacity="0.22"/>
<path d="M410 160H400V170H410V160Z" fill="#627D98" fill-opacity="0.22"/>
<path d="M440 160H450V170H440V160Z" fill="#627D98" fill-opacity="0.22"/>
<path d="M410 120H400V130H410V120Z" fill="#627D98" fill-opacity="0.22"/>
<path d="M440 120H450V130H440V120Z" fill="#627D98" fill-opacity="0.22"/>
<path d="M410 80H400V90H410V80Z" fill="#627D98" fill-opacity="0.22"/>
<path d="M400 40H410V50H400V40Z" fill="#627D98" fill-opacity="0.22"/>
<path d="M480 0H490V10H480V0Z" fill="#627D98" fill-opacity="0.22"/>
<path d="M490 40H480V50H490V40Z" fill="#627D98" fill-opacity="0.22"/>
<path d="M480 80H490V90H480V80Z" fill="#627D98" fill-opacity="0.22"/>
<path d="M490 120H480V130H490V120Z" fill="#627D98" fill-opacity="0.22"/>
<path d="M490 160H480V170H490V160Z" fill="#627D98" fill-opacity="0.22"/>
<path d="M530 160H520V170H530V160Z" fill="#627D98" fill-opacity="0.22"/>
<path d="M520 120H530V130H520V120Z" fill="#627D98" fill-opacity="0.22"/>
<path d="M530 80H520V90H530V80Z" fill="#627D98" fill-opacity="0.22"/>
<path d="M520 40H530V50H520V40Z" fill="#627D98" fill-opacity="0.22"/>
<path d="M570 160H560V170H570V160Z" fill="#627D98" fill-opacity="0.22"/>
<path d="M560 120H570V130H560V120Z" fill="#627D98" fill-opacity="0.22"/>
<path d="M570 80H560V90H570V80Z" fill="#627D98" fill-opacity="0.22"/>
<path d="M600 160H610V170H600V160Z" fill="#627D98" fill-opacity="0.22"/>
<path d="M610 120H600V130H610V120Z" fill="#627D98" fill-opacity="0.22"/>
<path d="M640 160H650V170H640V160Z" fill="#627D98" fill-opacity="0.22"/>
<path d="M650 120H640V130H650V120Z" fill="#627D98" fill-opacity="0.22"/>
<path d="M640 80H650V90H640V80Z" fill="#627D98" fill-opacity="0.22"/>
<path d="M650 40H640V50H650V40Z" fill="#627D98" fill-opacity="0.22"/>
<path d="M680 160H690V170H680V160Z" fill="#627D98" fill-opacity="0.22"/>
<path d="M690 120H680V130H690V120Z" fill="#627D98" fill-opacity="0.22"/>
<path d="M680 80H690V90H680V80Z" fill="#627D98" fill-opacity="0.22"/>
<path d="M730 160H720V170H730V160Z" fill="#627D98" fill-opacity="0.22"/>
<path d="M720 120H730V130H720V120Z" fill="#627D98" fill-opacity="0.22"/>
<path d="M730 80H720V90H730V80Z" fill="#627D98" fill-opacity="0.22"/>
<path d="M720 40H730V50H720V40Z" fill="#627D98" fill-opacity="0.22"/>
<path d="M730 0H720V10H730V0Z" fill="#627D98" fill-opacity="0.22"/>
<path d="M760 160H770V170H760V160Z" fill="#627D98" fill-opacity="0.22"/>
<path d="M770 120H760V130H770V120Z" fill="#627D98" fill-opacity="0.22"/>
<path d="M760 80H770V90H760V80Z" fill="#627D98" fill-opacity="0.22"/>
<path d="M770 40H760V50H770V40Z" fill="#627D98" fill-opacity="0.22"/>
<path d="M800 160H810V170H800V160Z" fill="#627D98" fill-opacity="0.22"/>
<path d="M810 120H800V130H810V120Z" fill="#627D98" fill-opacity="0.22"/>
<path d="M800 80H810V90H800V80Z" fill="#627D98" fill-opacity="0.22"/>
<path d="M850 160H840V170H850V160Z" fill="#627D98" fill-opacity="0.22"/>
<path d="M840 120H850V130H840V120Z" fill="#627D98" fill-opacity="0.22"/>
<path d="M890 160H880V170H890V160Z" fill="#627D98" fill-opacity="0.22"/>
<path d="M920 160H930V170H920V160Z" fill="#627D98" fill-opacity="0.22"/>
<path d="M890 120H880V130H890V120Z" fill="#627D98" fill-opacity="0.22"/>
<path d="M920 120H930V130H920V120Z" fill="#627D98" fill-opacity="0.22"/>
<path d="M890 80H880V90H890V80Z" fill="#627D98" fill-opacity="0.22"/>
<path d="M880 40H890V50H880V40Z" fill="#627D98" fill-opacity="0.22"/>
<path d="M970 0H960V10H970V0Z" fill="#627D98" fill-opacity="0.22"/>
<path d="M960 40H970V50H960V40Z" fill="#627D98" fill-opacity="0.22"/>
<path d="M970 80H960V90H970V80Z" fill="#627D98" fill-opacity="0.22"/>
<path d="M960 120H970V130H960V120Z" fill="#627D98" fill-opacity="0.22"/>
<path d="M960 160H970V170H960V160Z" fill="#627D98" fill-opacity="0.22"/>
<path d="M1000 160H1010V170H1000V160Z" fill="#627D98" fill-opacity="0.22"/>
<path d="M1010 120H1000V130H1010V120Z" fill="#627D98" fill-opacity="0.22"/>
<path d="M1000 80H1010V90H1000V80Z" fill="#627D98" fill-opacity="0.22"/>
<path d="M1010 40H1000V50H1010V40Z" fill="#627D98" fill-opacity="0.22"/>
<path d="M1040 160H1050V170H1040V160Z" fill="#627D98" fill-opacity="0.22"/>
<path d="M1050 120H1040V130H1050V120Z" fill="#627D98" fill-opacity="0.22"/>
<path d="M1040 80H1050V90H1040V80Z" fill="#627D98" fill-opacity="0.22"/>
<path d="M1090 160H1080V170H1090V160Z" fill="#627D98" fill-opacity="0.22"/>
<path d="M1080 120H1090V130H1080V120Z" fill="#627D98" fill-opacity="0.22"/>
<path d="M1130 160H1120V170H1130V160Z" fill="#627D98" fill-opacity="0.22"/>
<path d="M1120 120H1130V130H1120V120Z" fill="#627D98" fill-opacity="0.22"/>
<path d="M1130 80H1120V90H1130V80Z" fill="#627D98" fill-opacity="0.22"/>
<path d="M1120 40H1130V50H1120V40Z" fill="#627D98" fill-opacity="0.22"/>
<path d="M1170 160H1160V170H1170V160Z" fill="#627D98" fill-opacity="0.22"/>
<path d="M1160 120H1170V130H1160V120Z" fill="#627D98" fill-opacity="0.22"/>
<path d="M1170 80H1160V90H1170V80Z" fill="#627D98" fill-opacity="0.22"/>
<path d="M1200 160H1210V170H1200V160Z" fill="#627D98" fill-opacity="0.22"/>
<path d="M1210 120H1200V130H1210V120Z" fill="#627D98" fill-opacity="0.22"/>
<path d="M1200 80H1210V90H1200V80Z" fill="#627D98" fill-opacity="0.22"/>
<path d="M1210 40H1200V50H1210V40Z" fill="#627D98" fill-opacity="0.22"/>
<path d="M1200 0H1210V10H1200V0Z" fill="#627D98" fill-opacity="0.22"/>
<path d="M1250 160H1240V170H1250V160Z" fill="#627D98" fill-opacity="0.22"/>
<path d="M1240 120H1250V130H1240V120Z" fill="#627D98" fill-opacity="0.22"/>
<path d="M1250 80H1240V90H1250V80Z" fill="#627D98" fill-opacity="0.22"/>
<path d="M1240 40H1250V50H1240V40Z" fill="#627D98" fill-opacity="0.22"/>
<path d="M1290 160H1280V170H1290V160Z" fill="#627D98" fill-opacity="0.22"/>
<path d="M1280 120H1290V130H1280V120Z" fill="#627D98" fill-opacity="0.22"/>
<path d="M1290 80H1280V90H1290V80Z" fill="#627D98" fill-opacity="0.22"/>
<path d="M1320 160H1330V170H1320V160Z" fill="#627D98" fill-opacity="0.22"/>
<path d="M1330 120H1320V130H1330V120Z" fill="#627D98" fill-opacity="0.22"/>
<path d="M1360 160H1370V170H1360V160Z" fill="#627D98" fill-opacity="0.22"/>
<path d="M1410 160H1400V170H1410V160Z" fill="#627D98" fill-opacity="0.22"/>
<path d="M1360 120H1370V130H1360V120Z" fill="#627D98" fill-opacity="0.22"/>
<path d="M1410 120H1400V130H1410V120Z" fill="#627D98" fill-opacity="0.22"/>
<path d="M1360 80H1370V90H1360V80Z" fill="#627D98" fill-opacity="0.22"/>
<path d="M1370 40H1360V50H1370V40Z" fill="#627D98" fill-opacity="0.22"/>
<path d="M1440 0H1450V10H1440V0Z" fill="#627D98" fill-opacity="0.22"/>
<path d="M1450 40H1440V50H1450V40Z" fill="#627D98" fill-opacity="0.22"/>
<path d="M1440 80H1450V90H1440V80Z" fill="#627D98" fill-opacity="0.22"/>
<path d="M1450 120H1440V130H1450V120Z" fill="#627D98" fill-opacity="0.22"/>
<path d="M1450 160H1440V170H1450V160Z" fill="#627D98" fill-opacity="0.22"/>
<path d="M1490 160H1480V170H1490V160Z" fill="#627D98" fill-opacity="0.22"/>
<path d="M1480 120H1490V130H1480V120Z" fill="#627D98" fill-opacity="0.22"/>
<path d="M1490 80H1480V90H1490V80Z" fill="#627D98" fill-opacity="0.22"/>
<path d="M1480 40H1490V50H1480V40Z" fill="#627D98" fill-opacity="0.22"/>
<path d="M1530 160H1520V170H1530V160Z" fill="#627D98" fill-opacity="0.22"/>
<path d="M1520 120H1530V130H1520V120Z" fill="#627D98" fill-opacity="0.22"/>
<path d="M1530 80H1520V90H1530V80Z" fill="#627D98" fill-opacity="0.22"/>
<path d="M1560 160H1570V170H1560V160Z" fill="#627D98" fill-opacity="0.22"/>
<path d="M1570 120H1560V130H1570V120Z" fill="#627D98" fill-opacity="0.22"/>
<path d="M1600 160H1610V170H1600V160Z" fill="#627D98" fill-opacity="0.22"/>
<path d="M1610 120H1600V130H1610V120Z" fill="#627D98" fill-opacity="0.22"/>
<path d="M1600 80H1610V90H1600V80Z" fill="#627D98" fill-opacity="0.22"/>
<path d="M1610 40H1600V50H1610V40Z" fill="#627D98" fill-opacity="0.22"/>
<path d="M1640 160H1650V170H1640V160Z" fill="#627D98" fill-opacity="0.22"/>
<path d="M1650 120H1640V130H1650V120Z" fill="#627D98" fill-opacity="0.22"/>
<path d="M1640 80H1650V90H1640V80Z" fill="#627D98" fill-opacity="0.22"/>
<path d="M1690 160H1680V170H1690V160Z" fill="#627D98" fill-opacity="0.22"/>
<path d="M1680 120H1690V130H1680V120Z" fill="#627D98" fill-opacity="0.22"/>
<path d="M1690 80H1680V90H1690V80Z" fill="#627D98" fill-opacity="0.22"/>
<path d="M1680 40H1690V50H1680V40Z" fill="#627D98" fill-opacity="0.22"/>
<path d="M1690 0H1680V10H1690V0Z" fill="#627D98" fill-opacity="0.22"/>
<path d="M1720 160H1730V170H1720V160Z" fill="#627D98" fill-opacity="0.22"/>
<path d="M1730 120H1720V130H1730V120Z" fill="#627D98" fill-opacity="0.22"/>
<path d="M1720 80H1730V90H1720V80Z" fill="#627D98" fill-opacity="0.22"/>
<path d="M1730 40H1720V50H1730V40Z" fill="#627D98" fill-opacity="0.22"/>
<path d="M1760 160H1770V170H1760V160Z" fill="#627D98" fill-opacity="0.22"/>
<path d="M1770 120H1760V130H1770V120Z" fill="#627D98" fill-opacity="0.22"/>
<path d="M1760 80H1770V90H1760V80Z" fill="#627D98" fill-opacity="0.22"/>
<path d="M1810 160H1800V170H1810V160Z" fill="#627D98" fill-opacity="0.22"/>
<path d="M1800 120H1810V130H1800V120Z" fill="#627D98" fill-opacity="0.22"/>
<path d="M1850 160H1840V170H1850V160Z" fill="#627D98" fill-opacity="0.22"/>
<path d="M1880 160H1890V170H1880V160Z" fill="#627D98" fill-opacity="0.22"/>
<path d="M1850 120H1840V130H1850V120Z" fill="#627D98" fill-opacity="0.22"/>
<path d="M1880 120H1890V130H1880V120Z" fill="#627D98" fill-opacity="0.22"/>
<path d="M1850 80H1840V90H1850V80Z" fill="#627D98" fill-opacity="0.22"/>
<path d="M1840 40H1850V50H1840V40Z" fill="#627D98" fill-opacity="0.22"/>
<path d="M1930 0H1920V10H1930V0Z" fill="#627D98" fill-opacity="0.22"/>
<path d="M1920 40H1930V50H1920V40Z" fill="#627D98" fill-opacity="0.22"/>
<path d="M1930 80H1920V90H1930V80Z" fill="#627D98" fill-opacity="0.22"/>
<path d="M1920 120H1930V130H1920V120Z" fill="#627D98" fill-opacity="0.22"/>
<path d="M1920 160H1930V170H1920V160Z" fill="#627D98" fill-opacity="0.22"/>
<path d="M1960 160H1970V170H1960V160Z" fill="#627D98" fill-opacity="0.22"/>
<path d="M1970 120H1960V130H1970V120Z" fill="#627D98" fill-opacity="0.22"/>
<path d="M1960 80H1970V90H1960V80Z" fill="#627D98" fill-opacity="0.22"/>
<path d="M1970 40H1960V50H1970V40Z" fill="#627D98" fill-opacity="0.22"/>
<path d="M2000 160H2010V170H2000V160Z" fill="#627D98" fill-opacity="0.22"/>
<path d="M2010 120H2000V130H2010V120Z" fill="#627D98" fill-opacity="0.22"/>
<path d="M2000 80H2010V90H2000V80Z" fill="#627D98" fill-opacity="0.22"/>
<path d="M2050 160H2040V170H2050V160Z" fill="#627D98" fill-opacity="0.22"/>
<path d="M2040 120H2050V130H2040V120Z" fill="#627D98" fill-opacity="0.22"/>
<path d="M2090 160H2080V170H2090V160Z" fill="#627D98" fill-opacity="0.22"/>
<path d="M2080 120H2090V130H2080V120Z" fill="#627D98" fill-opacity="0.22"/>
<path d="M2090 80H2080V90H2090V80Z" fill="#627D98" fill-opacity="0.22"/>
<path d="M2080 40H2090V50H2080V40Z" fill="#627D98" fill-opacity="0.22"/>
<path d="M2130 160H2120V170H2130V160Z" fill="#627D98" fill-opacity="0.22"/>
<path d="M2120 120H2130V130H2120V120Z" fill="#627D98" fill-opacity="0.22"/>
<path d="M2130 80H2120V90H2130V80Z" fill="#627D98" fill-opacity="0.22"/>
<path d="M2160 160H2170V170H2160V160Z" fill="#627D98" fill-opacity="0.22"/>
<path d="M2170 120H2160V130H2170V120Z" fill="#627D98" fill-opacity="0.22"/>
<path d="M2160 80H2170V90H2160V80Z" fill="#627D98" fill-opacity="0.22"/>
<path d="M2170 40H2160V50H2170V40Z" fill="#627D98" fill-opacity="0.22"/>
<path d="M2160 0H2170V10H2160V0Z" fill="#627D98" fill-opacity="0.22"/>
<path d="M2210 160H2200V170H2210V160Z" fill="#627D98" fill-opacity="0.22"/>
<path d="M2200 120H2210V130H2200V120Z" fill="#627D98" fill-opacity="0.22"/>
<path d="M2210 80H2200V90H2210V80Z" fill="#627D98" fill-opacity="0.22"/>
<path d="M2200 40H2210V50H2200V40Z" fill="#627D98" fill-opacity="0.22"/>
<path d="M2250 160H2240V170H2250V160Z" fill="#627D98" fill-opacity="0.22"/>
<path d="M2240 120H2250V130H2240V120Z" fill="#627D98" fill-opacity="0.22"/>
<path d="M2250 80H2240V90H2250V80Z" fill="#627D98" fill-opacity="0.22"/>
<path d="M2280 160H2290V170H2280V160Z" fill="#627D98" fill-opacity="0.22"/>
<path d="M2290 120H2280V130H2290V120Z" fill="#627D98" fill-opacity="0.22"/>
<path d="M2320 160H2330V170H2320V160Z" fill="#627D98" fill-opacity="0.22"/>
<path d="M2370 160H2360V170H2370V160Z" fill="#627D98" fill-opacity="0.22"/>
<path d="M2320 120H2330V130H2320V120Z" fill="#627D98" fill-opacity="0.22"/>
<path d="M2370 120H2360V130H2370V120Z" fill="#627D98" fill-opacity="0.22"/>
<path d="M2320 80H2330V90H2320V80Z" fill="#627D98" fill-opacity="0.22"/>
<path d="M2330 40H2320V50H2330V40Z" fill="#627D98" fill-opacity="0.22"/>
<path d="M2400 0H2410V10H2400V0Z" fill="#627D98" fill-opacity="0.22"/>
<path d="M2410 40H2400V50H2410V40Z" fill="#627D98" fill-opacity="0.22"/>
<path d="M2400 80H2410V90H2400V80Z" fill="#627D98" fill-opacity="0.22"/>
<path d="M2410 120H2400V130H2410V120Z" fill="#627D98" fill-opacity="0.22"/>
<path d="M2410 160H2400V170H2410V160Z" fill="#627D98" fill-opacity="0.22"/>
<path d="M2450 160H2440V170H2450V160Z" fill="#627D98" fill-opacity="0.22"/>
<path d="M2440 120H2450V130H2440V120Z" fill="#627D98" fill-opacity="0.22"/>
<path d="M2450 80H2440V90H2450V80Z" fill="#627D98" fill-opacity="0.22"/>
<path d="M2440 40H2450V50H2440V40Z" fill="#627D98" fill-opacity="0.22"/>
<path d="M2490 160H2480V170H2490V160Z" fill="#627D98" fill-opacity="0.22"/>
<path d="M2480 120H2490V130H2480V120Z" fill="#627D98" fill-opacity="0.22"/>
<path d="M2490 80H2480V90H2490V80Z" fill="#627D98" fill-opacity="0.22"/>
<path d="M2520 160H2530V170H2520V160Z" fill="#627D98" fill-opacity="0.22"/>
<path d="M2530 120H2520V130H2530V120Z" fill="#627D98" fill-opacity="0.22"/>
<path d="M2560 160H2570V170H2560V160Z" fill="#627D98" fill-opacity="0.22"/>
<path d="M2570 120H2560V130H2570V120Z" fill="#627D98" fill-opacity="0.22"/>
<path d="M2560 80H2570V90H2560V80Z" fill="#627D98" fill-opacity="0.22"/>
<path d="M2570 40H2560V50H2570V40Z" fill="#627D98" fill-opacity="0.22"/>
<path d="M2600 160H2610V170H2600V160Z" fill="#627D98" fill-opacity="0.22"/>
<path d="M2610 120H2600V130H2610V120Z" fill="#627D98" fill-opacity="0.22"/>
<path d="M2600 80H2610V90H2600V80Z" fill="#627D98" fill-opacity="0.22"/>
<path d="M2650 160H2640V170H2650V160Z" fill="#627D98" fill-opacity="0.22"/>
<path d="M2640 120H2650V130H2640V120Z" fill="#627D98" fill-opacity="0.22"/>
<path d="M2650 80H2640V90H2650V80Z" fill="#627D98" fill-opacity="0.22"/>
<path d="M2640 40H2650V50H2640V40Z" fill="#627D98" fill-opacity="0.22"/>
<path d="M2650 0H2640V10H2650V0Z" fill="#627D98" fill-opacity="0.22"/>
<path d="M2680 160H2690V170H2680V160Z" fill="#627D98" fill-opacity="0.22"/>
<path d="M2690 120H2680V130H2690V120Z" fill="#627D98" fill-opacity="0.22"/>
<path d="M2680 80H2690V90H2680V80Z" fill="#627D98" fill-opacity="0.22"/>
<path d="M2690 40H2680V50H2690V40Z" fill="#627D98" fill-opacity="0.22"/>
<path d="M2720 160H2730V170H2720V160Z" fill="#627D98" fill-opacity="0.22"/>
<path d="M2730 120H2720V130H2730V120Z" fill="#627D98" fill-opacity="0.22"/>
<path d="M2720 80H2730V90H2720V80Z" fill="#627D98" fill-opacity="0.22"/>
<path d="M2770 160H2760V170H2770V160Z" fill="#627D98" fill-opacity="0.22"/>
<path d="M2760 120H2770V130H2760V120Z" fill="#627D98" fill-opacity="0.22"/>
<path d="M2810 160H2800V170H2810V160Z" fill="#627D98" fill-opacity="0.22"/>
<path d="M2840 160H2850V170H2840V160Z" fill="#627D98" fill-opacity="0.22"/>
<path d="M2810 120H2800V130H2810V120Z" fill="#627D98" fill-opacity="0.22"/>
<path d="M2840 120H2850V130H2840V120Z" fill="#627D98" fill-opacity="0.22"/>
<path d="M2810 80H2800V90H2810V80Z" fill="#627D98" fill-opacity="0.22"/>
<path d="M2800 40H2810V50H2800V40Z" fill="#627D98" fill-opacity="0.22"/>
<path d="M2890 0H2880V10H2890V0Z" fill="#627D98" fill-opacity="0.22"/>
<path d="M2880 40H2890V50H2880V40Z" fill="#627D98" fill-opacity="0.22"/>
<path d="M2890 80H2880V90H2890V80Z" fill="#627D98" fill-opacity="0.22"/>
<path d="M2880 120H2890V130H2880V120Z" fill="#627D98" fill-opacity="0.22"/>
<path d="M2880 160H2890V170H2880V160Z" fill="#627D98" fill-opacity="0.22"/>
<path d="M2920 160H2930V170H2920V160Z" fill="#627D98" fill-opacity="0.22"/>
<path d="M2930 120H2920V130H2930V120Z" fill="#627D98" fill-opacity="0.22"/>
<path d="M2920 80H2930V90H2920V80Z" fill="#627D98" fill-opacity="0.22"/>
<path d="M2930 40H2920V50H2930V40Z" fill="#627D98" fill-opacity="0.22"/>
<path d="M2960 160H2970V170H2960V160Z" fill="#627D98" fill-opacity="0.22"/>
<path d="M2970 120H2960V130H2970V120Z" fill="#627D98" fill-opacity="0.22"/>
<path d="M2960 80H2970V90H2960V80Z" fill="#627D98" fill-opacity="0.22"/>
<path d="M3010 160H3000V170H3010V160Z" fill="#627D98" fill-opacity="0.22"/>
<path d="M3000 120H3010V130H3000V120Z" fill="#627D98" fill-opacity="0.22"/>
<path d="M3050 160H3040V170H3050V160Z" fill="#627D98" fill-opacity="0.22"/>
<path d="M3040 120H3050V130H3040V120Z" fill="#627D98" fill-opacity="0.22"/>
<path d="M3050 80H3040V90H3050V80Z" fill="#627D98" fill-opacity="0.22"/>
<path d="M3040 40H3050V50H3040V40Z" fill="#627D98" fill-opacity="0.22"/>
<path d="M3090 160H3080V170H3090V160Z" fill="#627D98" fill-opacity="0.22"/>
<path d="M3080 120H3090V130H3080V120Z" fill="#627D98" fill-opacity="0.22"/>
<path d="M3090 80H3080V90H3090V80Z" fill="#627D98" fill-opacity="0.22"/>
<path d="M3120 160H3130V170H3120V160Z" fill="#627D98" fill-opacity="0.22"/>
<path d="M3130 120H3120V130H3130V120Z" fill="#627D98" fill-opacity="0.22"/>
<path d="M3120 80H3130V90H3120V80Z" fill="#627D98" fill-opacity="0.22"/>
<path d="M3130 40H3120V50H3130V40Z" fill="#627D98" fill-opacity="0.22"/>
<path d="M3120 0H3130V10H3120V0Z" fill="#627D98" fill-opacity="0.22"/>
<path d="M3170 160H3160V170H3170V160Z" fill="#627D98" fill-opacity="0.22"/>
<path d="M3160 120H3170V130H3160V120Z" fill="#627D98" fill-opacity="0.22"/>
<path d="M3170 80H3160V90H3170V80Z" fill="#627D98" fill-opacity="0.22"/>
<path d="M3160 40H3170V50H3160V40Z" fill="#627D98" fill-opacity="0.22"/>
<path d="M3210 160H3200V170H3210V160Z" fill="#627D98" fill-opacity="0.22"/>
<path d="M3200 120H3210V130H3200V120Z" fill="#627D98" fill-opacity="0.22"/>
<path d="M3210 80H3200V90H3210V80Z" fill="#627D98" fill-opacity="0.22"/>
<path d="M3240 160H3250V170H3240V160Z" fill="#627D98" fill-opacity="0.22"/>
<path d="M3250 120H3240V130H3250V120Z" fill="#627D98" fill-opacity="0.22"/>
<path d="M3280 160H3290V170H3280V160Z" fill="#627D98" fill-opacity="0.22"/>
<path d="M3330 160H3320V170H3330V160Z" fill="#627D98" fill-opacity="0.22"/>
<path d="M3280 120H3290V130H3280V120Z" fill="#627D98" fill-opacity="0.22"/>
<path d="M3330 120H3320V130H3330V120Z" fill="#627D98" fill-opacity="0.22"/>
<path d="M3280 80H3290V90H3280V80Z" fill="#627D98" fill-opacity="0.22"/>
<path d="M3290 40H3280V50H3290V40Z" fill="#627D98" fill-opacity="0.22"/>
<path d="M3360 0H3370V10H3360V0Z" fill="#627D98" fill-opacity="0.22"/>
<path d="M3370 40H3360V50H3370V40Z" fill="#627D98" fill-opacity="0.22"/>
<path d="M3360 80H3370V90H3360V80Z" fill="#627D98" fill-opacity="0.22"/>
<path d="M3370 120H3360V130H3370V120Z" fill="#627D98" fill-opacity="0.22"/>
<path d="M3370 160H3360V170H3370V160Z" fill="#627D98" fill-opacity="0.22"/>
<path d="M3410 160H3400V170H3410V160Z" fill="#627D98" fill-opacity="0.22"/>
<path d="M3400 120H3410V130H3400V120Z" fill="#627D98" fill-opacity="0.22"/>
<path d="M3410 80H3400V90H3410V80Z" fill="#627D98" fill-opacity="0.22"/>
<path d="M3400 40H3410V50H3400V40Z" fill="#627D98" fill-opacity="0.22"/>
<path d="M3450 160H3440V170H3450V160Z" fill="#627D98" fill-opacity="0.22"/>
<path d="M3440 120H3450V130H3440V120Z" fill="#627D98" fill-opacity="0.22"/>
<path d="M3450 80H3440V90H3450V80Z" fill="#627D98" fill-opacity="0.22"/>
<path d="M3480 160H3490V170H3480V160Z" fill="#627D98" fill-opacity="0.22"/>
<path d="M3490 120H3480V130H3490V120Z" fill="#627D98" fill-opacity="0.22"/>
<path d="M3520 160H3530V170H3520V160Z" fill="#627D98" fill-opacity="0.22"/>
<path d="M3530 120H3520V130H3530V120Z" fill="#627D98" fill-opacity="0.22"/>
<path d="M3520 80H3530V90H3520V80Z" fill="#627D98" fill-opacity="0.22"/>
<path d="M3530 40H3520V50H3530V40Z" fill="#627D98" fill-opacity="0.22"/>
<path d="M3560 160H3570V170H3560V160Z" fill="#627D98" fill-opacity="0.22"/>
<path d="M3570 120H3560V130H3570V120Z" fill="#627D98" fill-opacity="0.22"/>
<path d="M3560 80H3570V90H3560V80Z" fill="#627D98" fill-opacity="0.22"/>
<path d="M3610 160H3600V170H3610V160Z" fill="#627D98" fill-opacity="0.22"/>
<path d="M3600 120H3610V130H3600V120Z" fill="#627D98" fill-opacity="0.22"/>
<path d="M3610 80H3600V90H3610V80Z" fill="#627D98" fill-opacity="0.22"/>
<path d="M3600 40H3610V50H3600V40Z" fill="#627D98" fill-opacity="0.22"/>
<path d="M3610 0H3600V10H3610V0Z" fill="#627D98" fill-opacity="0.22"/>
<path d="M3640 160H3650V170H3640V160Z" fill="#627D98" fill-opacity="0.22"/>
<path d="M3650 120H3640V130H3650V120Z" fill="#627D98" fill-opacity="0.22"/>
<path d="M3640 80H3650V90H3640V80Z" fill="#627D98" fill-opacity="0.22"/>
<path d="M3650 40H3640V50H3650V40Z" fill="#627D98" fill-opacity="0.22"/>
<path d="M3680 160H3690V170H3680V160Z" fill="#627D98" fill-opacity="0.22"/>
<path d="M3690 120H3680V130H3690V120Z" fill="#627D98" fill-opacity="0.22"/>
<path d="M3680 80H3690V90H3680V80Z" fill="#627D98" fill-opacity="0.22"/>
<path d="M3730 160H3720V170H3730V160Z" fill="#627D98" fill-opacity="0.22"/>
<path d="M3720 120H3730V130H3720V120Z" fill="#627D98" fill-opacity="0.22"/>
<path d="M3770 160H3760V170H3770V160Z" fill="#627D98" fill-opacity="0.22"/>
<path d="M3800 160H3810V170H3800V160Z" fill="#627D98" fill-opacity="0.22"/>
<path d="M3770 120H3760V130H3770V120Z" fill="#627D98" fill-opacity="0.22"/>
<path d="M3800 120H3810V130H3800V120Z" fill="#627D98" fill-opacity="0.22"/>
<path d="M3770 80H3760V90H3770V80Z" fill="#627D98" fill-opacity="0.22"/>
<path d="M3760 40H3770V50H3760V40Z" fill="#627D98" fill-opacity="0.22"/>
<path d="M0 372H10V361.882H0V372Z" fill="#627D98" fill-opacity="0.22"/>
<path d="M10 331.529H0V321.412H10V331.529Z" fill="#627D98" fill-opacity="0.22"/>
<path d="M0 291.059H10V280.941H0V291.059Z" fill="#627D98" fill-opacity="0.22"/>
<path d="M10 250.588H0V240.471H10V250.588Z" fill="#627D98" fill-opacity="0.22"/>
<path d="M10 210.118H0V200H10V210.118Z" fill="#627D98" fill-opacity="0.22"/>
<path d="M50 210.118H40V200H50V210.118Z" fill="#627D98" fill-opacity="0.22"/>
<path d="M40 250.588H50V240.471H40V250.588Z" fill="#627D98" fill-opacity="0.22"/>
<path d="M50 291.059H40V280.941H50V291.059Z" fill="#627D98" fill-opacity="0.22"/>
<path d="M40 331.529H50V321.412H40V331.529Z" fill="#627D98" fill-opacity="0.22"/>
<path d="M90 210.118H80V200H90V210.118Z" fill="#627D98" fill-opacity="0.22"/>
<path d="M80 250.588H90V240.471H80V250.588Z" fill="#627D98" fill-opacity="0.22"/>
<path d="M90 291.059H80V280.941H90V291.059Z" fill="#627D98" fill-opacity="0.22"/>
<path d="M120 210.118H130V200H120V210.118Z" fill="#627D98" fill-opacity="0.22"/>
<path d="M130 250.588H120V240.471H130V250.588Z" fill="#627D98" fill-opacity="0.22"/>
<path d="M160 210.118H170V200H160V210.118Z" fill="#627D98" fill-opacity="0.22"/>
<path d="M170 250.588H160V240.471H170V250.588Z" fill="#627D98" fill-opacity="0.22"/>
<path d="M160 291.059H170V280.941H160V291.059Z" fill="#627D98" fill-opacity="0.22"/>
<path d="M170 331.529H160V321.412H170V331.529Z" fill="#627D98" fill-opacity="0.22"/>
<path d="M200 210.118H210V200H200V210.118Z" fill="#627D98" fill-opacity="0.22"/>
<path d="M210 250.588H200V240.471H210V250.588Z" fill="#627D98" fill-opacity="0.22"/>
<path d="M200 291.059H210V280.941H200V291.059Z" fill="#627D98" fill-opacity="0.22"/>
<path d="M250 210.118H240V200H250V210.118Z" fill="#627D98" fill-opacity="0.22"/>
<path d="M240 250.588H250V240.471H240V250.588Z" fill="#627D98" fill-opacity="0.22"/>
<path d="M250 291.059H240V280.941H250V291.059Z" fill="#627D98" fill-opacity="0.22"/>
<path d="M240 331.529H250V321.412H240V331.529Z" fill="#627D98" fill-opacity="0.22"/>
<path d="M250 372H240V361.882H250V372Z" fill="#627D98" fill-opacity="0.22"/>
<path d="M280 210.118H290V200H280V210.118Z" fill="#627D98" fill-opacity="0.22"/>
<path d="M290 250.588H280V240.471H290V250.588Z" fill="#627D98" fill-opacity="0.22"/>
<path d="M280 291.059H290V280.941H280V291.059Z" fill="#627D98" fill-opacity="0.22"/>
<path d="M290 331.529H280V321.412H290V331.529Z" fill="#627D98" fill-opacity="0.22"/>
<path d="M320 210.118H330V200H320V210.118Z" fill="#627D98" fill-opacity="0.22"/>
<path d="M330 250.588H320V240.471H330V250.588Z" fill="#627D98" fill-opacity="0.22"/>
<path d="M320 291.059H330V280.941H320V291.059Z" fill="#627D98" fill-opacity="0.22"/>
<path d="M370 210.118H360V200H370V210.118Z" fill="#627D98" fill-opacity="0.22"/>
<path d="M360 250.588H370V240.471H360V250.588Z" fill="#627D98" fill-opacity="0.22"/>
<path d="M410 210.118H400V200H410V210.118Z" fill="#627D98" fill-opacity="0.22"/>
<path d="M440 210.118H450V200H440V210.118Z" fill="#627D98" fill-opacity="0.22"/>
<path d="M410 250.588H400V240.471H410V250.588Z" fill="#627D98" fill-opacity="0.22"/>
<path d="M440 250.588H450V240.471H440V250.588Z" fill="#627D98" fill-opacity="0.22"/>
<path d="M410 291.059H400V280.941H410V291.059Z" fill="#627D98" fill-opacity="0.22"/>
<path d="M400 331.529H410V321.412H400V331.529Z" fill="#627D98" fill-opacity="0.22"/>
<path d="M480 372H490V361.882H480V372Z" fill="#627D98" fill-opacity="0.22"/>
<path d="M490 331.529H480V321.412H490V331.529Z" fill="#627D98" fill-opacity="0.22"/>
<path d="M480 291.059H490V280.941H480V291.059Z" fill="#627D98" fill-opacity="0.22"/>
<path d="M490 250.588H480V240.471H490V250.588Z" fill="#627D98" fill-opacity="0.22"/>
<path d="M490 210.118H480V200H490V210.118Z" fill="#627D98" fill-opacity="0.22"/>
<path d="M530 210.118H520V200H530V210.118Z" fill="#627D98" fill-opacity="0.22"/>
<path d="M520 250.588H530V240.471H520V250.588Z" fill="#627D98" fill-opacity="0.22"/>
<path d="M530 291.059H520V280.941H530V291.059Z" fill="#627D98" fill-opacity="0.22"/>
<path d="M520 331.529H530V321.412H520V331.529Z" fill="#627D98" fill-opacity="0.22"/>
<path d="M570 210.118H560V200H570V210.118Z" fill="#627D98" fill-opacity="0.22"/>
<path d="M560 250.588H570V240.471H560V250.588Z" fill="#627D98" fill-opacity="0.22"/>
<path d="M570 291.059H560V280.941H570V291.059Z" fill="#627D98" fill-opacity="0.22"/>
<path d="M600 210.118H610V200H600V210.118Z" fill="#627D98" fill-opacity="0.22"/>
<path d="M610 250.588H600V240.471H610V250.588Z" fill="#627D98" fill-opacity="0.22"/>
<path d="M640 210.118H650V200H640V210.118Z" fill="#627D98" fill-opacity="0.22"/>
<path d="M650 250.588H640V240.471H650V250.588Z" fill="#627D98" fill-opacity="0.22"/>
<path d="M640 291.059H650V280.941H640V291.059Z" fill="#627D98" fill-opacity="0.22"/>
<path d="M650 331.529H640V321.412H650V331.529Z" fill="#627D98" fill-opacity="0.22"/>
<path d="M680 210.118H690V200H680V210.118Z" fill="#627D98" fill-opacity="0.22"/>
<path d="M690 250.588H680V240.471H690V250.588Z" fill="#627D98" fill-opacity="0.22"/>
<path d="M680 291.059H690V280.941H680V291.059Z" fill="#627D98" fill-opacity="0.22"/>
<path d="M730 210.118H720V200H730V210.118Z" fill="#627D98" fill-opacity="0.22"/>
<path d="M720 250.588H730V240.471H720V250.588Z" fill="#627D98" fill-opacity="0.22"/>
<path d="M730 291.059H720V280.941H730V291.059Z" fill="#627D98" fill-opacity="0.22"/>
<path d="M720 331.529H730V321.412H720V331.529Z" fill="#627D98" fill-opacity="0.22"/>
<path d="M730 372H720V361.882H730V372Z" fill="#627D98" fill-opacity="0.22"/>
<path d="M760 210.118H770V200H760V210.118Z" fill="#627D98" fill-opacity="0.22"/>
<path d="M770 250.588H760V240.471H770V250.588Z" fill="#627D98" fill-opacity="0.22"/>
<path d="M760 291.059H770V280.941H760V291.059Z" fill="#627D98" fill-opacity="0.22"/>
<path d="M770 331.529H760V321.412H770V331.529Z" fill="#627D98" fill-opacity="0.22"/>
<path d="M800 210.118H810V200H800V210.118Z" fill="#627D98" fill-opacity="0.22"/>
<path d="M810 250.588H800V240.471H810V250.588Z" fill="#627D98" fill-opacity="0.22"/>
<path d="M800 291.059H810V280.941H800V291.059Z" fill="#627D98" fill-opacity="0.22"/>
<path d="M850 210.118H840V200H850V210.118Z" fill="#627D98" fill-opacity="0.22"/>
<path d="M840 250.588H850V240.471H840V250.588Z" fill="#627D98" fill-opacity="0.22"/>
<path d="M890 210.118H880V200H890V210.118Z" fill="#627D98" fill-opacity="0.22"/>
<path d="M920 210.118H930V200H920V210.118Z" fill="#627D98" fill-opacity="0.22"/>
<path d="M890 250.588H880V240.471H890V250.588Z" fill="#627D98" fill-opacity="0.22"/>
<path d="M920 250.588H930V240.471H920V250.588Z" fill="#627D98" fill-opacity="0.22"/>
<path d="M890 291.059H880V280.941H890V291.059Z" fill="#627D98" fill-opacity="0.22"/>
<path d="M880 331.529H890V321.412H880V331.529Z" fill="#627D98" fill-opacity="0.22"/>
<path d="M970 372H960V361.882H970V372Z" fill="#627D98" fill-opacity="0.22"/>
<path d="M960 331.529H970V321.412H960V331.529Z" fill="#627D98" fill-opacity="0.22"/>
<path d="M970 291.059H960V280.941H970V291.059Z" fill="#627D98" fill-opacity="0.22"/>
<path d="M960 250.588H970V240.471H960V250.588Z" fill="#627D98" fill-opacity="0.22"/>
<path d="M960 210.118H970V200H960V210.118Z" fill="#627D98" fill-opacity="0.22"/>
<path d="M1000 210.118H1010V200H1000V210.118Z" fill="#627D98" fill-opacity="0.22"/>
<path d="M1010 250.588H1000V240.471H1010V250.588Z" fill="#627D98" fill-opacity="0.22"/>
<path d="M1000 291.059H1010V280.941H1000V291.059Z" fill="#627D98" fill-opacity="0.22"/>
<path d="M1010 331.529H1000V321.412H1010V331.529Z" fill="#627D98" fill-opacity="0.22"/>
<path d="M1040 210.118H1050V200H1040V210.118Z" fill="#627D98" fill-opacity="0.22"/>
<path d="M1050 250.588H1040V240.471H1050V250.588Z" fill="#627D98" fill-opacity="0.22"/>
<path d="M1040 291.059H1050V280.941H1040V291.059Z" fill="#627D98" fill-opacity="0.22"/>
<path d="M1090 210.118H1080V200H1090V210.118Z" fill="#627D98" fill-opacity="0.22"/>
<path d="M1080 250.588H1090V240.471H1080V250.588Z" fill="#627D98" fill-opacity="0.22"/>
<path d="M1130 210.118H1120V200H1130V210.118Z" fill="#627D98" fill-opacity="0.22"/>
<path d="M1120 250.588H1130V240.471H1120V250.588Z" fill="#627D98" fill-opacity="0.22"/>
<path d="M1130 291.059H1120V280.941H1130V291.059Z" fill="#627D98" fill-opacity="0.22"/>
<path d="M1120 331.529H1130V321.412H1120V331.529Z" fill="#627D98" fill-opacity="0.22"/>
<path d="M1170 210.118H1160V200H1170V210.118Z" fill="#627D98" fill-opacity="0.22"/>
<path d="M1160 250.588H1170V240.471H1160V250.588Z" fill="#627D98" fill-opacity="0.22"/>
<path d="M1170 291.059H1160V280.941H1170V291.059Z" fill="#627D98" fill-opacity="0.22"/>
<path d="M1200 210.118H1210V200H1200V210.118Z" fill="#627D98" fill-opacity="0.22"/>
<path d="M1210 250.588H1200V240.471H1210V250.588Z" fill="#627D98" fill-opacity="0.22"/>
<path d="M1200 291.059H1210V280.941H1200V291.059Z" fill="#627D98" fill-opacity="0.22"/>
<path d="M1210 331.529H1200V321.412H1210V331.529Z" fill="#627D98" fill-opacity="0.22"/>
<path d="M1200 372H1210V361.882H1200V372Z" fill="#627D98" fill-opacity="0.22"/>
<path d="M1250 210.118H1240V200H1250V210.118Z" fill="#627D98" fill-opacity="0.22"/>
<path d="M1240 250.588H1250V240.471H1240V250.588Z" fill="#627D98" fill-opacity="0.22"/>
<path d="M1250 291.059H1240V280.941H1250V291.059Z" fill="#627D98" fill-opacity="0.22"/>
<path d="M1240 331.529H1250V321.412H1240V331.529Z" fill="#627D98" fill-opacity="0.22"/>
<path d="M1290 210.118H1280V200H1290V210.118Z" fill="#627D98" fill-opacity="0.22"/>
<path d="M1280 250.588H1290V240.471H1280V250.588Z" fill="#627D98" fill-opacity="0.22"/>
<path d="M1290 291.059H1280V280.941H1290V291.059Z" fill="#627D98" fill-opacity="0.22"/>
<path d="M1320 210.118H1330V200H1320V210.118Z" fill="#627D98" fill-opacity="0.22"/>
<path d="M1330 250.588H1320V240.471H1330V250.588Z" fill="#627D98" fill-opacity="0.22"/>
<path d="M1360 210.118H1370V200H1360V210.118Z" fill="#627D98" fill-opacity="0.22"/>
<path d="M1410 210.118H1400V200H1410V210.118Z" fill="#627D98" fill-opacity="0.22"/>
<path d="M1360 250.588H1370V240.471H1360V250.588Z" fill="#627D98" fill-opacity="0.22"/>
<path d="M1410 250.588H1400V240.471H1410V250.588Z" fill="#627D98" fill-opacity="0.22"/>
<path d="M1360 291.059H1370V280.941H1360V291.059Z" fill="#627D98" fill-opacity="0.22"/>
<path d="M1370 331.529H1360V321.412H1370V331.529Z" fill="#627D98" fill-opacity="0.22"/>
<path d="M1440 372H1450V361.882H1440V372Z" fill="#627D98" fill-opacity="0.22"/>
<path d="M1450 331.529H1440V321.412H1450V331.529Z" fill="#627D98" fill-opacity="0.22"/>
<path d="M1440 291.059H1450V280.941H1440V291.059Z" fill="#627D98" fill-opacity="0.22"/>
<path d="M1450 250.588H1440V240.471H1450V250.588Z" fill="#627D98" fill-opacity="0.22"/>
<path d="M1450 210.118H1440V200H1450V210.118Z" fill="#627D98" fill-opacity="0.22"/>
<path d="M1490 210.118H1480V200H1490V210.118Z" fill="#627D98" fill-opacity="0.22"/>
<path d="M1480 250.588H1490V240.471H1480V250.588Z" fill="#627D98" fill-opacity="0.22"/>
<path d="M1490 291.059H1480V280.941H1490V291.059Z" fill="#627D98" fill-opacity="0.22"/>
<path d="M1480 331.529H1490V321.412H1480V331.529Z" fill="#627D98" fill-opacity="0.22"/>
<path d="M1530 210.118H1520V200H1530V210.118Z" fill="#627D98" fill-opacity="0.22"/>
<path d="M1520 250.588H1530V240.471H1520V250.588Z" fill="#627D98" fill-opacity="0.22"/>
<path d="M1530 291.059H1520V280.941H1530V291.059Z" fill="#627D98" fill-opacity="0.22"/>
<path d="M1560 210.118H1570V200H1560V210.118Z" fill="#627D98" fill-opacity="0.22"/>
<path d="M1570 250.588H1560V240.471H1570V250.588Z" fill="#627D98" fill-opacity="0.22"/>
<path d="M1600 210.118H1610V200H1600V210.118Z" fill="#627D98" fill-opacity="0.22"/>
<path d="M1610 250.588H1600V240.471H1610V250.588Z" fill="#627D98" fill-opacity="0.22"/>
<path d="M1600 291.059H1610V280.941H1600V291.059Z" fill="#627D98" fill-opacity="0.22"/>
<path d="M1610 331.529H1600V321.412H1610V331.529Z" fill="#627D98" fill-opacity="0.22"/>
<path d="M1640 210.118H1650V200H1640V210.118Z" fill="#627D98" fill-opacity="0.22"/>
<path d="M1650 250.588H1640V240.471H1650V250.588Z" fill="#627D98" fill-opacity="0.22"/>
<path d="M1640 291.059H1650V280.941H1640V291.059Z" fill="#627D98" fill-opacity="0.22"/>
<path d="M1690 210.118H1680V200H1690V210.118Z" fill="#627D98" fill-opacity="0.22"/>
<path d="M1680 250.588H1690V240.471H1680V250.588Z" fill="#627D98" fill-opacity="0.22"/>
<path d="M1690 291.059H1680V280.941H1690V291.059Z" fill="#627D98" fill-opacity="0.22"/>
<path d="M1680 331.529H1690V321.412H1680V331.529Z" fill="#627D98" fill-opacity="0.22"/>
<path d="M1690 372H1680V361.882H1690V372Z" fill="#627D98" fill-opacity="0.22"/>
<path d="M1720 210.118H1730V200H1720V210.118Z" fill="#627D98" fill-opacity="0.22"/>
<path d="M1730 250.588H1720V240.471H1730V250.588Z" fill="#627D98" fill-opacity="0.22"/>
<path d="M1720 291.059H1730V280.941H1720V291.059Z" fill="#627D98" fill-opacity="0.22"/>
<path d="M1730 331.529H1720V321.412H1730V331.529Z" fill="#627D98" fill-opacity="0.22"/>
<path d="M1760 210.118H1770V200H1760V210.118Z" fill="#627D98" fill-opacity="0.22"/>
<path d="M1770 250.588H1760V240.471H1770V250.588Z" fill="#627D98" fill-opacity="0.22"/>
<path d="M1760 291.059H1770V280.941H1760V291.059Z" fill="#627D98" fill-opacity="0.22"/>
<path d="M1810 210.118H1800V200H1810V210.118Z" fill="#627D98" fill-opacity="0.22"/>
<path d="M1800 250.588H1810V240.471H1800V250.588Z" fill="#627D98" fill-opacity="0.22"/>
<path d="M1850 210.118H1840V200H1850V210.118Z" fill="#627D98" fill-opacity="0.22"/>
<path d="M1880 210.118H1890V200H1880V210.118Z" fill="#627D98" fill-opacity="0.22"/>
<path d="M1850 250.588H1840V240.471H1850V250.588Z" fill="#627D98" fill-opacity="0.22"/>
<path d="M1880 250.588H1890V240.471H1880V250.588Z" fill="#627D98" fill-opacity="0.22"/>
<path d="M1850 291.059H1840V280.941H1850V291.059Z" fill="#627D98" fill-opacity="0.22"/>
<path d="M1840 331.529H1850V321.412H1840V331.529Z" fill="#627D98" fill-opacity="0.22"/>
<path d="M1930 372H1920V361.882H1930V372Z" fill="#627D98" fill-opacity="0.22"/>
<path d="M1920 331.529H1930V321.412H1920V331.529Z" fill="#627D98" fill-opacity="0.22"/>
<path d="M1930 291.059H1920V280.941H1930V291.059Z" fill="#627D98" fill-opacity="0.22"/>
<path d="M1920 250.588H1930V240.471H1920V250.588Z" fill="#627D98" fill-opacity="0.22"/>
<path d="M1920 210.118H1930V200H1920V210.118Z" fill="#627D98" fill-opacity="0.22"/>
<path d="M1960 210.118H1970V200H1960V210.118Z" fill="#627D98" fill-opacity="0.22"/>
<path d="M1970 250.588H1960V240.471H1970V250.588Z" fill="#627D98" fill-opacity="0.22"/>
<path d="M1960 291.059H1970V280.941H1960V291.059Z" fill="#627D98" fill-opacity="0.22"/>
<path d="M1970 331.529H1960V321.412H1970V331.529Z" fill="#627D98" fill-opacity="0.22"/>
<path d="M2000 210.118H2010V200H2000V210.118Z" fill="#627D98" fill-opacity="0.22"/>
<path d="M2010 250.588H2000V240.471H2010V250.588Z" fill="#627D98" fill-opacity="0.22"/>
<path d="M2000 291.059H2010V280.941H2000V291.059Z" fill="#627D98" fill-opacity="0.22"/>
<path d="M2050 210.118H2040V200H2050V210.118Z" fill="#627D98" fill-opacity="0.22"/>
<path d="M2040 250.588H2050V240.471H2040V250.588Z" fill="#627D98" fill-opacity="0.22"/>
<path d="M2090 210.118H2080V200H2090V210.118Z" fill="#627D98" fill-opacity="0.22"/>
<path d="M2080 250.588H2090V240.471H2080V250.588Z" fill="#627D98" fill-opacity="0.22"/>
<path d="M2090 291.059H2080V280.941H2090V291.059Z" fill="#627D98" fill-opacity="0.22"/>
<path d="M2080 331.529H2090V321.412H2080V331.529Z" fill="#627D98" fill-opacity="0.22"/>
<path d="M2130 210.118H2120V200H2130V210.118Z" fill="#627D98" fill-opacity="0.22"/>
<path d="M2120 250.588H2130V240.471H2120V250.588Z" fill="#627D98" fill-opacity="0.22"/>
<path d="M2130 291.059H2120V280.941H2130V291.059Z" fill="#627D98" fill-opacity="0.22"/>
<path d="M2160 210.118H2170V200H2160V210.118Z" fill="#627D98" fill-opacity="0.22"/>
<path d="M2170 250.588H2160V240.471H2170V250.588Z" fill="#627D98" fill-opacity="0.22"/>
<path d="M2160 291.059H2170V280.941H2160V291.059Z" fill="#627D98" fill-opacity="0.22"/>
<path d="M2170 331.529H2160V321.412H2170V331.529Z" fill="#627D98" fill-opacity="0.22"/>
<path d="M2160 372H2170V361.882H2160V372Z" fill="#627D98" fill-opacity="0.22"/>
<path d="M2210 210.118H2200V200H2210V210.118Z" fill="#627D98" fill-opacity="0.22"/>
<path d="M2200 250.588H2210V240.471H2200V250.588Z" fill="#627D98" fill-opacity="0.22"/>
<path d="M2210 291.059H2200V280.941H2210V291.059Z" fill="#627D98" fill-opacity="0.22"/>
<path d="M2200 331.529H2210V321.412H2200V331.529Z" fill="#627D98" fill-opacity="0.22"/>
<path d="M2250 210.118H2240V200H2250V210.118Z" fill="#627D98" fill-opacity="0.22"/>
<path d="M2240 250.588H2250V240.471H2240V250.588Z" fill="#627D98" fill-opacity="0.22"/>
<path d="M2250 291.059H2240V280.941H2250V291.059Z" fill="#627D98" fill-opacity="0.22"/>
<path d="M2280 210.118H2290V200H2280V210.118Z" fill="#627D98" fill-opacity="0.22"/>
<path d="M2290 250.588H2280V240.471H2290V250.588Z" fill="#627D98" fill-opacity="0.22"/>
<path d="M2320 210.118H2330V200H2320V210.118Z" fill="#627D98" fill-opacity="0.22"/>
<path d="M2370 210.118H2360V200H2370V210.118Z" fill="#627D98" fill-opacity="0.22"/>
<path d="M2320 250.588H2330V240.471H2320V250.588Z" fill="#627D98" fill-opacity="0.22"/>
<path d="M2370 250.588H2360V240.471H2370V250.588Z" fill="#627D98" fill-opacity="0.22"/>
<path d="M2320 291.059H2330V280.941H2320V291.059Z" fill="#627D98" fill-opacity="0.22"/>
<path d="M2330 331.529H2320V321.412H2330V331.529Z" fill="#627D98" fill-opacity="0.22"/>
<path d="M2400 372H2410V361.882H2400V372Z" fill="#627D98" fill-opacity="0.22"/>
<path d="M2410 331.529H2400V321.412H2410V331.529Z" fill="#627D98" fill-opacity="0.22"/>
<path d="M2400 291.059H2410V280.941H2400V291.059Z" fill="#627D98" fill-opacity="0.22"/>
<path d="M2410 250.588H2400V240.471H2410V250.588Z" fill="#627D98" fill-opacity="0.22"/>
<path d="M2410 210.118H2400V200H2410V210.118Z" fill="#627D98" fill-opacity="0.22"/>
<path d="M2450 210.118H2440V200H2450V210.118Z" fill="#627D98" fill-opacity="0.22"/>
<path d="M2440 250.588H2450V240.471H2440V250.588Z" fill="#627D98" fill-opacity="0.22"/>
<path d="M2450 291.059H2440V280.941H2450V291.059Z" fill="#627D98" fill-opacity="0.22"/>
<path d="M2440 331.529H2450V321.412H2440V331.529Z" fill="#627D98" fill-opacity="0.22"/>
<path d="M2490 210.118H2480V200H2490V210.118Z" fill="#627D98" fill-opacity="0.22"/>
<path d="M2480 250.588H2490V240.471H2480V250.588Z" fill="#627D98" fill-opacity="0.22"/>
<path d="M2490 291.059H2480V280.941H2490V291.059Z" fill="#627D98" fill-opacity="0.22"/>
<path d="M2520 210.118H2530V200H2520V210.118Z" fill="#627D98" fill-opacity="0.22"/>
<path d="M2530 250.588H2520V240.471H2530V250.588Z" fill="#627D98" fill-opacity="0.22"/>
<path d="M2560 210.118H2570V200H2560V210.118Z" fill="#627D98" fill-opacity="0.22"/>
<path d="M2570 250.588H2560V240.471H2570V250.588Z" fill="#627D98" fill-opacity="0.22"/>
<path d="M2560 291.059H2570V280.941H2560V291.059Z" fill="#627D98" fill-opacity="0.22"/>
<path d="M2570 331.529H2560V321.412H2570V331.529Z" fill="#627D98" fill-opacity="0.22"/>
<path d="M2600 210.118H2610V200H2600V210.118Z" fill="#627D98" fill-opacity="0.22"/>
<path d="M2610 250.588H2600V240.471H2610V250.588Z" fill="#627D98" fill-opacity="0.22"/>
<path d="M2600 291.059H2610V280.941H2600V291.059Z" fill="#627D98" fill-opacity="0.22"/>
<path d="M2650 210.118H2640V200H2650V210.118Z" fill="#627D98" fill-opacity="0.22"/>
<path d="M2640 250.588H2650V240.471H2640V250.588Z" fill="#627D98" fill-opacity="0.22"/>
<path d="M2650 291.059H2640V280.941H2650V291.059Z" fill="#627D98" fill-opacity="0.22"/>
<path d="M2640 331.529H2650V321.412H2640V331.529Z" fill="#627D98" fill-opacity="0.22"/>
<path d="M2650 372H2640V361.882H2650V372Z" fill="#627D98" fill-opacity="0.22"/>
<path d="M2680 210.118H2690V200H2680V210.118Z" fill="#627D98" fill-opacity="0.22"/>
<path d="M2690 250.588H2680V240.471H2690V250.588Z" fill="#627D98" fill-opacity="0.22"/>
<path d="M2680 291.059H2690V280.941H2680V291.059Z" fill="#627D98" fill-opacity="0.22"/>
<path d="M2690 331.529H2680V321.412H2690V331.529Z" fill="#627D98" fill-opacity="0.22"/>
<path d="M2720 210.118H2730V200H2720V210.118Z" fill="#627D98" fill-opacity="0.22"/>
<path d="M2730 250.588H2720V240.471H2730V250.588Z" fill="#627D98" fill-opacity="0.22"/>
<path d="M2720 291.059H2730V280.941H2720V291.059Z" fill="#627D98" fill-opacity="0.22"/>
<path d="M2770 210.118H2760V200H2770V210.118Z" fill="#627D98" fill-opacity="0.22"/>
<path d="M2760 250.588H2770V240.471H2760V250.588Z" fill="#627D98" fill-opacity="0.22"/>
<path d="M2810 210.118H2800V200H2810V210.118Z" fill="#627D98" fill-opacity="0.22"/>
<path d="M2840 210.118H2850V200H2840V210.118Z" fill="#627D98" fill-opacity="0.22"/>
<path d="M2810 250.588H2800V240.471H2810V250.588Z" fill="#627D98" fill-opacity="0.22"/>
<path d="M2840 250.588H2850V240.471H2840V250.588Z" fill="#627D98" fill-opacity="0.22"/>
<path d="M2810 291.059H2800V280.941H2810V291.059Z" fill="#627D98" fill-opacity="0.22"/>
<path d="M2800 331.529H2810V321.412H2800V331.529Z" fill="#627D98" fill-opacity="0.22"/>
<path d="M2890 372H2880V361.882H2890V372Z" fill="#627D98" fill-opacity="0.22"/>
<path d="M2880 331.529H2890V321.412H2880V331.529Z" fill="#627D98" fill-opacity="0.22"/>
<path d="M2890 291.059H2880V280.941H2890V291.059Z" fill="#627D98" fill-opacity="0.22"/>
<path d="M2880 250.588H2890V240.471H2880V250.588Z" fill="#627D98" fill-opacity="0.22"/>
<path d="M2880 210.118H2890V200H2880V210.118Z" fill="#627D98" fill-opacity="0.22"/>
<path d="M2920 210.118H2930V200H2920V210.118Z" fill="#627D98" fill-opacity="0.22"/>
<path d="M2930 250.588H2920V240.471H2930V250.588Z" fill="#627D98" fill-opacity="0.22"/>
<path d="M2920 291.059H2930V280.941H2920V291.059Z" fill="#627D98" fill-opacity="0.22"/>
<path d="M2930 331.529H2920V321.412H2930V331.529Z" fill="#627D98" fill-opacity="0.22"/>
<path d="M2960 210.118H2970V200H2960V210.118Z" fill="#627D98" fill-opacity="0.22"/>
<path d="M2970 250.588H2960V240.471H2970V250.588Z" fill="#627D98" fill-opacity="0.22"/>
<path d="M2960 291.059H2970V280.941H2960V291.059Z" fill="#627D98" fill-opacity="0.22"/>
<path d="M3010 210.118H3000V200H3010V210.118Z" fill="#627D98" fill-opacity="0.22"/>
<path d="M3000 250.588H3010V240.471H3000V250.588Z" fill="#627D98" fill-opacity="0.22"/>
<path d="M3050 210.118H3040V200H3050V210.118Z" fill="#627D98" fill-opacity="0.22"/>
<path d="M3040 250.588H3050V240.471H3040V250.588Z" fill="#627D98" fill-opacity="0.22"/>
<path d="M3050 291.059H3040V280.941H3050V291.059Z" fill="#627D98" fill-opacity="0.22"/>
<path d="M3040 331.529H3050V321.412H3040V331.529Z" fill="#627D98" fill-opacity="0.22"/>
<path d="M3090 210.118H3080V200H3090V210.118Z" fill="#627D98" fill-opacity="0.22"/>
<path d="M3080 250.588H3090V240.471H3080V250.588Z" fill="#627D98" fill-opacity="0.22"/>
<path d="M3090 291.059H3080V280.941H3090V291.059Z" fill="#627D98" fill-opacity="0.22"/>
<path d="M3120 210.118H3130V200H3120V210.118Z" fill="#627D98" fill-opacity="0.22"/>
<path d="M3130 250.588H3120V240.471H3130V250.588Z" fill="#627D98" fill-opacity="0.22"/>
<path d="M3120 291.059H3130V280.941H3120V291.059Z" fill="#627D98" fill-opacity="0.22"/>
<path d="M3130 331.529H3120V321.412H3130V331.529Z" fill="#627D98" fill-opacity="0.22"/>
<path d="M3120 372H3130V361.882H3120V372Z" fill="#627D98" fill-opacity="0.22"/>
<path d="M3170 210.118H3160V200H3170V210.118Z" fill="#627D98" fill-opacity="0.22"/>
<path d="M3160 250.588H3170V240.471H3160V250.588Z" fill="#627D98" fill-opacity="0.22"/>
<path d="M3170 291.059H3160V280.941H3170V291.059Z" fill="#627D98" fill-opacity="0.22"/>
<path d="M3160 331.529H3170V321.412H3160V331.529Z" fill="#627D98" fill-opacity="0.22"/>
<path d="M3210 210.118H3200V200H3210V210.118Z" fill="#627D98" fill-opacity="0.22"/>
<path d="M3200 250.588H3210V240.471H3200V250.588Z" fill="#627D98" fill-opacity="0.22"/>
<path d="M3210 291.059H3200V280.941H3210V291.059Z" fill="#627D98" fill-opacity="0.22"/>
<path d="M3240 210.118H3250V200H3240V210.118Z" fill="#627D98" fill-opacity="0.22"/>
<path d="M3250 250.588H3240V240.471H3250V250.588Z" fill="#627D98" fill-opacity="0.22"/>
<path d="M3280 210.118H3290V200H3280V210.118Z" fill="#627D98" fill-opacity="0.22"/>
<path d="M3330 210.118H3320V200H3330V210.118Z" fill="#627D98" fill-opacity="0.22"/>
<path d="M3280 250.588H3290V240.471H3280V250.588Z" fill="#627D98" fill-opacity="0.22"/>
<path d="M3330 250.588H3320V240.471H3330V250.588Z" fill="#627D98" fill-opacity="0.22"/>
<path d="M3280 291.059H3290V280.941H3280V291.059Z" fill="#627D98" fill-opacity="0.22"/>
<path d="M3290 331.529H3280V321.412H3290V331.529Z" fill="#627D98" fill-opacity="0.22"/>
<path d="M3360 372H3370V361.882H3360V372Z" fill="#627D98" fill-opacity="0.22"/>
<path d="M3370 331.529H3360V321.412H3370V331.529Z" fill="#627D98" fill-opacity="0.22"/>
<path d="M3360 291.059H3370V280.941H3360V291.059Z" fill="#627D98" fill-opacity="0.22"/>
<path d="M3370 250.588H3360V240.471H3370V250.588Z" fill="#627D98" fill-opacity="0.22"/>
<path d="M3370 210.118H3360V200H3370V210.118Z" fill="#627D98" fill-opacity="0.22"/>
<path d="M3410 210.118H3400V200H3410V210.118Z" fill="#627D98" fill-opacity="0.22"/>
<path d="M3400 250.588H3410V240.471H3400V250.588Z" fill="#627D98" fill-opacity="0.22"/>
<path d="M3410 291.059H3400V280.941H3410V291.059Z" fill="#627D98" fill-opacity="0.22"/>
<path d="M3400 331.529H3410V321.412H3400V331.529Z" fill="#627D98" fill-opacity="0.22"/>
<path d="M3450 210.118H3440V200H3450V210.118Z" fill="#627D98" fill-opacity="0.22"/>
<path d="M3440 250.588H3450V240.471H3440V250.588Z" fill="#627D98" fill-opacity="0.22"/>
<path d="M3450 291.059H3440V280.941H3450V291.059Z" fill="#627D98" fill-opacity="0.22"/>
<path d="M3480 210.118H3490V200H3480V210.118Z" fill="#627D98" fill-opacity="0.22"/>
<path d="M3490 250.588H3480V240.471H3490V250.588Z" fill="#627D98" fill-opacity="0.22"/>
<path d="M3520 210.118H3530V200H3520V210.118Z" fill="#627D98" fill-opacity="0.22"/>
<path d="M3530 250.588H3520V240.471H3530V250.588Z" fill="#627D98" fill-opacity="0.22"/>
<path d="M3520 291.059H3530V280.941H3520V291.059Z" fill="#627D98" fill-opacity="0.22"/>
<path d="M3530 331.529H3520V321.412H3530V331.529Z" fill="#627D98" fill-opacity="0.22"/>
<path d="M3560 210.118H3570V200H3560V210.118Z" fill="#627D98" fill-opacity="0.22"/>
<path d="M3570 250.588H3560V240.471H3570V250.588Z" fill="#627D98" fill-opacity="0.22"/>
<path d="M3560 291.059H3570V280.941H3560V291.059Z" fill="#627D98" fill-opacity="0.22"/>
<path d="M3610 210.118H3600V200H3610V210.118Z" fill="#627D98" fill-opacity="0.22"/>
<path d="M3600 250.588H3610V240.471H3600V250.588Z" fill="#627D98" fill-opacity="0.22"/>
<path d="M3610 291.059H3600V280.941H3610V291.059Z" fill="#627D98" fill-opacity="0.22"/>
<path d="M3600 331.529H3610V321.412H3600V331.529Z" fill="#627D98" fill-opacity="0.22"/>
<path d="M3610 372H3600V361.882H3610V372Z" fill="#627D98" fill-opacity="0.22"/>
<path d="M3640 210.118H3650V200H3640V210.118Z" fill="#627D98" fill-opacity="0.22"/>
<path d="M3650 250.588H3640V240.471H3650V250.588Z" fill="#627D98" fill-opacity="0.22"/>
<path d="M3640 291.059H3650V280.941H3640V291.059Z" fill="#627D98" fill-opacity="0.22"/>
<path d="M3650 331.529H3640V321.412H3650V331.529Z" fill="#627D98" fill-opacity="0.22"/>
<path d="M3680 210.118H3690V200H3680V210.118Z" fill="#627D98" fill-opacity="0.22"/>
<path d="M3690 250.588H3680V240.471H3690V250.588Z" fill="#627D98" fill-opacity="0.22"/>
<path d="M3680 291.059H3690V280.941H3680V291.059Z" fill="#627D98" fill-opacity="0.22"/>
<path d="M3730 210.118H3720V200H3730V210.118Z" fill="#627D98" fill-opacity="0.22"/>
<path d="M3720 250.588H3730V240.471H3720V250.588Z" fill="#627D98" fill-opacity="0.22"/>
<path d="M3770 210.118H3760V200H3770V210.118Z" fill="#627D98" fill-opacity="0.22"/>
<path d="M3800 210.118H3810V200H3800V210.118Z" fill="#627D98" fill-opacity="0.22"/>
<path d="M3770 250.588H3760V240.471H3770V250.588Z" fill="#627D98" fill-opacity="0.22"/>
<path d="M3800 250.588H3810V240.471H3800V250.588Z" fill="#627D98" fill-opacity="0.22"/>
<path d="M3770 291.059H3760V280.941H3770V291.059Z" fill="#627D98" fill-opacity="0.22"/>
<path d="M3760 331.529H3770V321.412H3760V331.529Z" fill="#627D98" fill-opacity="0.22"/>
</svg>
